<svg id="Layer_1" data-name="Layer 1" xmlns="http://www.w3.org/2000/svg" viewBox="0 0 300 300"><defs><style>.cls-1{fill:#fff;}.cls-2{opacity:0.2;}.cls-3{fill:#f79595;}.cls-4{fill:#ee6161;}.cls-5{fill:#f9b1b1;}.cls-6{fill:#f37c7c;}.cls-7{opacity:0.5;}.cls-8{opacity:0.8;}.cls-9{opacity:0.4;}</style></defs><title>covid</title><rect class="cls-1" width="300" height="300"/><g class="cls-2"><g id="_Group_" data-name="&lt;Group&gt;"><path class="cls-3" d="M85.32,48.81a1.61,1.61,0,0,1,1.27,1.89L86,53.93a1.61,1.61,0,0,1-2,1.25,1.64,1.64,0,0,1-1.18-1.91l0-.09-4.19.19a.3.3,0,0,0-.27.21,18,18,0,0,1-1.6,3.51.31.31,0,0,0,0,.35l1.85,2.2a1.93,1.93,0,0,1,2.87,2.58l-.54.7a2,2,0,0,1-2.66.46,1.93,1.93,0,0,1-.74-2.21L74.91,60a.3.3,0,0,0-.35.08,18.21,18.21,0,0,1-4.27,3.46.3.3,0,0,0-.15.31L70.83,68l.59-.24a1.61,1.61,0,0,1,2.12,1,1.63,1.63,0,0,1-1,2l-3,1.21a1.61,1.61,0,0,1-2.11-1,1.64,1.64,0,0,1,1-2l.08,0L66,65.53a.3.3,0,0,0-.33-.12,18.2,18.2,0,0,1-8.19.21.31.31,0,0,0-.32.13l-2.44,3.82.09,0A2,2,0,0,1,56,72.12a1.36,1.36,0,0,1-2,1.37l-3-1.09a2,2,0,0,1-1.18-2.47,2,2,0,0,1,2.57-1.18l.07,0,.5-4.48a.3.3,0,0,0-.16-.3,18.17,18.17,0,0,1-5-3.84.3.3,0,0,0-.34-.08l-3.65,1.5a1.72,1.72,0,0,1-.57,2.25,1.75,1.75,0,0,1-2.39-.5L39.94,62a1.75,1.75,0,0,1,.32-2.37,1.72,1.72,0,0,1,2.44.31L45.28,57a.3.3,0,0,0,0-.35,18,18,0,0,1-2.09-6.27.3.3,0,0,0-.23-.26l-4.11-1v.48a1.76,1.76,0,0,1-1.76,1.74,1.73,1.73,0,0,1-1.73-1.74l0-3A1.78,1.78,0,0,1,37.2,44.9a1.75,1.75,0,0,1,1.7,1.75l4.08-1a.3.3,0,0,0,.23-.26,18,18,0,0,1,2.25-6.6.31.31,0,0,0,0-.35L43.49,36.2l-.17.22a1.53,1.53,0,0,1-2.2.25,1.56,1.56,0,0,1-.21-2.14l1.3-1.71a1.53,1.53,0,0,1,2.51,1.74l2.72,1.18a.31.31,0,0,0,.35-.08,18.16,18.16,0,0,1,4.46-3.56.31.31,0,0,0,.15-.31l-.63-4.17-.6.23a1.61,1.61,0,0,1-2.1-1,1.63,1.63,0,0,1,1-2l3-1.17a1.61,1.61,0,0,1,2.1,1,1.63,1.63,0,0,1-1,2l-.08,0,2.39,3.44a.3.3,0,0,0,.32.12,18.14,18.14,0,0,1,4.32-.52h0a.31.31,0,0,0,.29-.2l.79-2.21a2,2,0,0,1-1.41-2.18,2.08,2.08,0,0,1,2.32-1.77l1.09.14a2.07,2.07,0,0,1,1.82,2.24,2,2,0,0,1-1.51,1.74l.27,2.4a.3.3,0,0,0,.24.26,18,18,0,0,1,5.15,2,.3.3,0,0,0,.35,0l3.28-2.66-.5-.4a1.61,1.61,0,0,1-.21-2.32,1.63,1.63,0,0,1,2.24-.17l2.55,2A1.61,1.61,0,0,1,78.13,31a1.64,1.64,0,0,1-2.24.17l-.07-.05-1.76,3.81a.3.3,0,0,0,.06.34,18.16,18.16,0,0,1,3.11,4.29.31.31,0,0,0,.31.16L80,39.34a1.94,1.94,0,0,1,1.22-2.49,2,2,0,0,1,2.43,1.21l.57,1.54a2,2,0,0,1-1,2.5,1.94,1.94,0,0,1-2.43-.77l-2.07,1.4a.3.3,0,0,0-.12.33,18.15,18.15,0,0,1,.65,4.83q0,.42,0,.83a.31.31,0,0,0,.18.29l3.87,1.69.12-.62a1.61,1.61,0,0,1,1.89-1.27Z"/></g><ellipse class="cls-4" cx="69.03" cy="38.96" rx="2.56" ry="2.14"/><circle class="cls-4" cx="59.8" cy="52.28" r="2.8"/><circle class="cls-5" cx="70.7" cy="50.82" r="2"/><circle class="cls-5" cx="63.3" cy="60.59" r="1.95"/><path class="cls-6" d="M50.15,47a21.41,21.41,0,0,1,8.47-17.07,18,18,0,0,0-1.77.34.3.3,0,0,1-.32-.12l-2.39-3.44.08,0a1.63,1.63,0,0,0,1-2,1.61,1.61,0,0,0-2.1-1l-3,1.17a1.63,1.63,0,0,0-1,2,1.61,1.61,0,0,0,2.1,1l.6-.23.63,4.17a.31.31,0,0,1-.15.31,18.16,18.16,0,0,0-4.46,3.56.31.31,0,0,1-.35.08l-2.72-1.18a1.53,1.53,0,0,0-2.51-1.74l-1.3,1.71a1.56,1.56,0,0,0,.21,2.14,1.53,1.53,0,0,0,2.2-.25l.17-.22,1.95,2.29a.31.31,0,0,1,0,.35,18,18,0,0,0-2.25,6.6.3.3,0,0,1-.23.26l-4.08,1a1.75,1.75,0,0,0-1.7-1.75,1.78,1.78,0,0,0-1.79,1.77l0,3a1.73,1.73,0,0,0,1.73,1.74,1.76,1.76,0,0,0,1.76-1.74v-.48l4.11,1a.3.3,0,0,1,.23.26,18,18,0,0,0,2.09,6.27.3.3,0,0,1,0,.35L42.7,59.91a1.72,1.72,0,0,0-2.44-.31A1.75,1.75,0,0,0,39.94,62l.94,1.35a1.75,1.75,0,0,0,2.39.5,1.72,1.72,0,0,0,.57-2.25l3.65-1.5a.3.3,0,0,1,.34.08,18.17,18.17,0,0,0,5,3.84.3.3,0,0,1,.16.3l-.5,4.48-.07,0a2,2,0,0,0-2.57,1.18,2,2,0,0,0,1.18,2.47l3,1.09a1.36,1.36,0,0,0,2-1.37,2,2,0,0,0-1.17-2.51l-.09,0,2.44-3.82a.31.31,0,0,1,.32-.13,18.16,18.16,0,0,0,3.64.37h.44A21.44,21.44,0,0,1,50.15,47Z"/><circle class="cls-4" cx="51.13" cy="55.94" r="2.03"/><path class="cls-5" d="M66.13,47h-.68a.77.77,0,1,1,0-1.55h.68a.77.77,0,1,1,0,1.55Z"/><path class="cls-5" d="M57,60.56h-.7a.77.77,0,1,1,0-1.55H57a.77.77,0,0,1,0,1.55Z"/><path class="cls-4" d="M49.78,49.28H49.1a.77.77,0,0,1,0-1.55h.68a.77.77,0,1,1,0,1.55Z"/><path class="cls-5" d="M63.54,35.72H62.6a.77.77,0,0,1,0-1.55h.94a.77.77,0,0,1,0,1.55Z"/><path class="cls-4" d="M69.74,58h-1a.77.77,0,1,1,0-1.55h1a.77.77,0,1,1,0,1.55Z"/><ellipse class="cls-4" cx="55.16" cy="41.1" rx="5.33" ry="4.46" transform="translate(-13.6 42.98) rotate(-38.26)"/></g><g class="cls-7"><g id="_Group_2" data-name="&lt;Group&gt;"><path class="cls-3" d="M106.38,126.34a1.61,1.61,0,0,1,1.27,1.89l-.64,3.24a1.61,1.61,0,0,1-2,1.25,1.64,1.64,0,0,1-1.18-1.91l0-.09-4.19.19a.3.3,0,0,0-.27.21,18,18,0,0,1-1.6,3.51.31.31,0,0,0,0,.35l1.85,2.2a1.93,1.93,0,0,1,2.87,2.58l-.54.7a2,2,0,0,1-2.66.46,1.93,1.93,0,0,1-.74-2.21L96,137.53a.3.3,0,0,0-.35.08,18.21,18.21,0,0,1-4.27,3.46.3.3,0,0,0-.15.31l.68,4.17.59-.24a1.61,1.61,0,0,1,2.12,1,1.63,1.63,0,0,1-1,2l-3,1.21a1.61,1.61,0,0,1-2.11-1,1.64,1.64,0,0,1,1-2l.08,0-2.44-3.41a.3.3,0,0,0-.33-.12,18.2,18.2,0,0,1-8.19.21.31.31,0,0,0-.32.13l-2.44,3.82.09,0a2,2,0,0,1,1.17,2.51,1.36,1.36,0,0,1-2,1.37l-3-1.09A2,2,0,0,1,71,147.47a2,2,0,0,1,2.57-1.18l.07,0,.5-4.48a.3.3,0,0,0-.16-.3,18.17,18.17,0,0,1-5-3.84.3.3,0,0,0-.34-.08l-3.65,1.5a1.72,1.72,0,0,1-.57,2.25,1.75,1.75,0,0,1-2.39-.5L61,139.51a1.75,1.75,0,0,1,.32-2.37,1.72,1.72,0,0,1,2.44.31l2.57-2.91a.3.3,0,0,0,0-.35,18,18,0,0,1-2.09-6.27.3.3,0,0,0-.23-.26l-4.11-1v.48a1.76,1.76,0,0,1-1.76,1.74,1.73,1.73,0,0,1-1.73-1.74l0-3a1.78,1.78,0,0,1,1.79-1.77,1.75,1.75,0,0,1,1.7,1.75l4.08-1a.3.3,0,0,0,.23-.26,18,18,0,0,1,2.25-6.6.31.31,0,0,0,0-.35l-1.95-2.29-.17.22a1.53,1.53,0,0,1-2.2.25,1.56,1.56,0,0,1-.21-2.14l1.3-1.71a1.53,1.53,0,0,1,2.51,1.74l2.72,1.18a.31.31,0,0,0,.35-.08,18.16,18.16,0,0,1,4.46-3.56.31.31,0,0,0,.15-.31l-.63-4.17-.6.23a1.61,1.61,0,0,1-2.1-1,1.63,1.63,0,0,1,1-2l3-1.17a1.61,1.61,0,0,1,2.1,1,1.63,1.63,0,0,1-1,2l-.08,0,2.39,3.44a.3.3,0,0,0,.32.12,18.14,18.14,0,0,1,4.32-.52h0a.31.31,0,0,0,.29-.2l.79-2.21a2,2,0,0,1-1.41-2.18,2.08,2.08,0,0,1,2.32-1.77l1.09.14a2.07,2.07,0,0,1,1.82,2.24,2,2,0,0,1-1.51,1.74l.27,2.4a.3.3,0,0,0,.24.26,18,18,0,0,1,5.15,2,.3.3,0,0,0,.35,0L94.91,107l-.5-.4a1.61,1.61,0,0,1-.21-2.32,1.63,1.63,0,0,1,2.24-.17l2.55,2a1.61,1.61,0,0,1,.21,2.32,1.64,1.64,0,0,1-2.24.17l-.07-.05-1.76,3.81a.3.3,0,0,0,.06.34,18.16,18.16,0,0,1,3.11,4.29.31.31,0,0,0,.31.16l2.49-.35a1.94,1.94,0,0,1,1.22-2.49,2,2,0,0,1,2.43,1.21l.57,1.54a2,2,0,0,1-1,2.5,1.94,1.94,0,0,1-2.43-.77l-2.07,1.4a.3.3,0,0,0-.12.33,18.15,18.15,0,0,1,.65,4.83q0,.42,0,.83a.31.31,0,0,0,.18.29l3.87,1.69.12-.62a1.61,1.61,0,0,1,1.89-1.27Z"/></g><ellipse class="cls-4" cx="90.1" cy="116.5" rx="2.56" ry="2.14"/><circle class="cls-4" cx="80.87" cy="129.82" r="2.8"/><circle class="cls-5" cx="91.76" cy="128.36" r="2"/><circle class="cls-5" cx="84.37" cy="138.13" r="1.95"/><path class="cls-6" d="M71.21,124.55a21.41,21.41,0,0,1,8.47-17.07,18,18,0,0,0-1.77.34.3.3,0,0,1-.32-.12l-2.39-3.44.08,0a1.63,1.63,0,0,0,1-2,1.61,1.61,0,0,0-2.1-1l-3,1.17a1.63,1.63,0,0,0-1,2,1.61,1.61,0,0,0,2.1,1l.6-.23.63,4.17a.31.31,0,0,1-.15.31,18.16,18.16,0,0,0-4.46,3.56.31.31,0,0,1-.35.08l-2.72-1.18a1.53,1.53,0,0,0-2.51-1.74L62,112.08a1.56,1.56,0,0,0,.21,2.14,1.53,1.53,0,0,0,2.2-.25l.17-.22L66.5,116a.31.31,0,0,1,0,.35,18,18,0,0,0-2.25,6.6.3.3,0,0,1-.23.26l-4.08,1a1.75,1.75,0,0,0-1.7-1.75,1.78,1.78,0,0,0-1.79,1.77l0,3a1.73,1.73,0,0,0,1.73,1.74,1.76,1.76,0,0,0,1.76-1.74v-.48l4.11,1a.3.3,0,0,1,.23.26,18,18,0,0,0,2.09,6.27.3.3,0,0,1,0,.35l-2.57,2.91a1.72,1.72,0,0,0-2.44-.31,1.75,1.75,0,0,0-.32,2.37l.94,1.35a1.75,1.75,0,0,0,2.39.5,1.72,1.72,0,0,0,.57-2.25l3.65-1.5a.3.3,0,0,1,.34.08,18.17,18.17,0,0,0,5,3.84.3.3,0,0,1,.16.3l-.5,4.48-.07,0A2,2,0,0,0,71,147.47a2,2,0,0,0,1.18,2.47l3,1.09a1.36,1.36,0,0,0,2-1.37,2,2,0,0,0-1.17-2.51l-.09,0,2.44-3.82a.31.31,0,0,1,.32-.13,18.16,18.16,0,0,0,3.64.37h.44a21.44,21.44,0,0,1-11.46-19Z"/><circle class="cls-4" cx="72.19" cy="133.47" r="2.03"/><path class="cls-5" d="M87.2,124.55h-.68a.77.77,0,1,1,0-1.55h.68a.77.77,0,1,1,0,1.55Z"/><path class="cls-5" d="M78.07,138.09h-.7a.77.77,0,0,1,0-1.55h.7a.77.77,0,0,1,0,1.55Z"/><path class="cls-4" d="M70.85,126.81h-.68a.77.77,0,1,1,0-1.55h.68a.77.77,0,0,1,0,1.55Z"/><path class="cls-5" d="M84.61,113.26h-.94a.77.77,0,1,1,0-1.55h.94a.77.77,0,1,1,0,1.55Z"/><path class="cls-4" d="M90.8,135.57h-1a.77.77,0,0,1,0-1.55h1a.77.77,0,0,1,0,1.55Z"/><ellipse class="cls-4" cx="76.23" cy="118.63" rx="5.33" ry="4.46" transform="translate(-57.09 72.68) rotate(-38.26)"/></g><g class="cls-2"><g id="_Group_3" data-name="&lt;Group&gt;"><path class="cls-3" d="M275.41,39.27a1.61,1.61,0,0,1,1.27,1.89L276,44.39a1.61,1.61,0,0,1-2,1.25,1.64,1.64,0,0,1-1.18-1.91l0-.09-4.19.19a.3.3,0,0,0-.27.21,18,18,0,0,1-1.6,3.51.31.31,0,0,0,0,.35l1.85,2.2a1.93,1.93,0,0,1,2.87,2.58l-.54.7a2,2,0,0,1-2.66.46,1.93,1.93,0,0,1-.74-2.21L265,50.46a.3.3,0,0,0-.35.08A18.21,18.21,0,0,1,260.39,54a.3.3,0,0,0-.15.31l.68,4.17.59-.24a1.61,1.61,0,0,1,2.12,1,1.63,1.63,0,0,1-1,2l-3,1.21a1.61,1.61,0,0,1-2.11-1,1.64,1.64,0,0,1,1-2l.08,0L256.14,56a.3.3,0,0,0-.33-.12,18.2,18.2,0,0,1-8.19.21.31.31,0,0,0-.32.13l-2.44,3.82.09,0a2,2,0,0,1,1.17,2.51,1.36,1.36,0,0,1-2,1.37l-3-1.09A2,2,0,0,1,240,60.39a2,2,0,0,1,2.57-1.18l.07,0,.5-4.48a.3.3,0,0,0-.16-.3,18.17,18.17,0,0,1-5-3.84.3.3,0,0,0-.34-.08L233.93,52a1.72,1.72,0,0,1-.57,2.25,1.75,1.75,0,0,1-2.39-.5L230,52.44a1.75,1.75,0,0,1,.32-2.37,1.72,1.72,0,0,1,2.44.31l2.57-2.91a.3.3,0,0,0,0-.35,18,18,0,0,1-2.09-6.27.3.3,0,0,0-.23-.26l-4.11-1v.48a1.76,1.76,0,0,1-1.76,1.74,1.73,1.73,0,0,1-1.73-1.74l0-3a1.78,1.78,0,0,1,1.79-1.77,1.75,1.75,0,0,1,1.7,1.75l4.08-1a.3.3,0,0,0,.23-.26,18,18,0,0,1,2.25-6.6.31.31,0,0,0,0-.35l-1.95-2.29-.17.22a1.53,1.53,0,0,1-2.2.25A1.56,1.56,0,0,1,231,25l1.3-1.71A1.53,1.53,0,0,1,234.81,25l2.72,1.18a.31.31,0,0,0,.35-.08,18.16,18.16,0,0,1,4.46-3.56.31.31,0,0,0,.15-.31l-.63-4.17-.6.23a1.61,1.61,0,0,1-2.1-1,1.63,1.63,0,0,1,1-2l3-1.17a1.61,1.61,0,0,1,2.1,1,1.63,1.63,0,0,1-1,2l-.08,0,2.39,3.44a.3.3,0,0,0,.32.12,18.14,18.14,0,0,1,4.32-.52h0a.31.31,0,0,0,.29-.2l.79-2.21a2,2,0,0,1-1.41-2.18,2.08,2.08,0,0,1,2.32-1.77l1.09.14a2.07,2.07,0,0,1,1.82,2.24A2,2,0,0,1,254.65,18l.27,2.4a.3.3,0,0,0,.24.26,18,18,0,0,1,5.15,2,.3.3,0,0,0,.35,0L263.94,20l-.5-.4a1.61,1.61,0,0,1-.21-2.32,1.63,1.63,0,0,1,2.24-.17l2.55,2a1.61,1.61,0,0,1,.21,2.32,1.64,1.64,0,0,1-2.24.17l-.07-.05-1.76,3.81a.3.3,0,0,0,.06.34A18.16,18.16,0,0,1,267.33,30a.31.31,0,0,0,.31.16l2.49-.35a1.94,1.94,0,0,1,1.22-2.49,2,2,0,0,1,2.43,1.21l.57,1.54a2,2,0,0,1-1,2.5,1.94,1.94,0,0,1-2.43-.77l-2.07,1.4a.3.3,0,0,0-.12.33,18.15,18.15,0,0,1,.65,4.83q0,.42,0,.83a.31.31,0,0,0,.18.29l3.87,1.69.12-.62a1.61,1.61,0,0,1,1.89-1.27Z"/></g><ellipse class="cls-4" cx="259.13" cy="29.43" rx="2.56" ry="2.14"/><circle class="cls-4" cx="249.9" cy="42.74" r="2.8"/><circle class="cls-5" cx="260.79" cy="41.29" r="2"/><circle class="cls-5" cx="253.4" cy="51.06" r="1.95"/><path class="cls-6" d="M240.24,37.48a21.41,21.41,0,0,1,8.47-17.07,18,18,0,0,0-1.77.34.3.3,0,0,1-.32-.12l-2.39-3.44.08,0a1.63,1.63,0,0,0,1-2,1.61,1.61,0,0,0-2.1-1l-3,1.17a1.63,1.63,0,0,0-1,2,1.61,1.61,0,0,0,2.1,1l.6-.23.63,4.17a.31.31,0,0,1-.15.31,18.16,18.16,0,0,0-4.46,3.56.31.31,0,0,1-.35.08L234.81,25a1.53,1.53,0,0,0-2.51-1.74L231,25a1.56,1.56,0,0,0,.21,2.14,1.53,1.53,0,0,0,2.2-.25l.17-.22L235.53,29a.31.31,0,0,1,0,.35,18,18,0,0,0-2.25,6.6.3.3,0,0,1-.23.26l-4.08,1a1.75,1.75,0,0,0-1.7-1.75,1.78,1.78,0,0,0-1.79,1.77l0,3a1.73,1.73,0,0,0,1.73,1.74A1.76,1.76,0,0,0,229,40.13v-.48l4.11,1a.3.3,0,0,1,.23.26,18,18,0,0,0,2.09,6.27.3.3,0,0,1,0,.35l-2.57,2.91a1.72,1.72,0,0,0-2.44-.31,1.75,1.75,0,0,0-.32,2.37l.94,1.35a1.75,1.75,0,0,0,2.39.5,1.72,1.72,0,0,0,.57-2.25l3.65-1.5a.3.3,0,0,1,.34.08,18.17,18.17,0,0,0,5,3.84.3.3,0,0,1,.16.3l-.5,4.48-.07,0A2,2,0,0,0,240,60.39a2,2,0,0,0,1.18,2.47l3,1.09a1.36,1.36,0,0,0,2-1.37A2,2,0,0,0,245,60.08l-.09,0,2.44-3.82a.31.31,0,0,1,.32-.13,18.16,18.16,0,0,0,3.64.37h.44a21.44,21.44,0,0,1-11.46-19Z"/><circle class="cls-4" cx="241.22" cy="46.4" r="2.03"/><path class="cls-5" d="M256.23,37.48h-.68a.77.77,0,0,1,0-1.55h.68a.77.77,0,0,1,0,1.55Z"/><path class="cls-5" d="M247.1,51h-.7a.77.77,0,0,1,0-1.55h.7a.77.77,0,0,1,0,1.55Z"/><path class="cls-4" d="M239.87,39.74h-.68a.77.77,0,0,1,0-1.55h.68a.77.77,0,0,1,0,1.55Z"/><path class="cls-5" d="M253.63,26.18h-.94a.77.77,0,0,1,0-1.55h.94a.77.77,0,0,1,0,1.55Z"/><path class="cls-4" d="M259.83,48.5h-1a.77.77,0,0,1,0-1.55h1a.77.77,0,0,1,0,1.55Z"/><ellipse class="cls-4" cx="245.25" cy="31.56" rx="5.33" ry="4.46" transform="translate(33.13 158.64) rotate(-38.26)"/></g><g class="cls-7"><g id="_Group_4" data-name="&lt;Group&gt;"><path class="cls-3" d="M149.28,29.87a.89.89,0,0,1,.7,1l-.35,1.79a.89.89,0,0,1-1.09.69.91.91,0,0,1-.66-1.06v0l-2.32.11a.17.17,0,0,0-.15.12,10,10,0,0,1-.89,1.95.17.17,0,0,0,0,.2l1,1.22a1.07,1.07,0,0,1,1.59,1.43l-.3.39a1.09,1.09,0,0,1-1.47.25,1.07,1.07,0,0,1-.41-1.23l-1.48-.65a.17.17,0,0,0-.19,0A10.09,10.09,0,0,1,141,38a.17.17,0,0,0-.08.17l.38,2.31.33-.13a.89.89,0,0,1,1.17.54.91.91,0,0,1-.53,1.13l-1.67.67a.89.89,0,0,1-1.17-.54.91.91,0,0,1,.53-1.13l0,0-1.35-1.89a.17.17,0,0,0-.18-.06,10.09,10.09,0,0,1-4.54.12.17.17,0,0,0-.18.07l-1.35,2.12,0,0a1.08,1.08,0,0,1,.65,1.39.75.75,0,0,1-1.08.76l-1.66-.61a1.08,1.08,0,0,1-.65-1.37,1.11,1.11,0,0,1,1.42-.66h0l.27-2.48a.17.17,0,0,0-.09-.17,10.07,10.07,0,0,1-2.79-2.13.17.17,0,0,0-.19,0l-2,.83a1,1,0,0,1-.32,1.25,1,1,0,0,1-1.32-.27l-.52-.75a1,1,0,0,1,.18-1.31,1,1,0,0,1,1.35.17l1.43-1.61a.17.17,0,0,0,0-.19A10,10,0,0,1,126,30.74a.17.17,0,0,0-.13-.14l-2.28-.53v.27a1,1,0,0,1-1,1,1,1,0,0,1-1-1V28.68a1,1,0,0,1,1-1,1,1,0,0,1,.94,1l2.26-.53A.17.17,0,0,0,126,28a10,10,0,0,1,1.25-3.66.17.17,0,0,0,0-.19l-1.08-1.27L126,23a.85.85,0,0,1-1.22.14.86.86,0,0,1-.12-1.18l.72-1a.85.85,0,0,1,1.39,1l1.51.65a.17.17,0,0,0,.19,0,10.06,10.06,0,0,1,2.47-2,.17.17,0,0,0,.08-.17l-.35-2.31-.33.13a.89.89,0,0,1-1.16-.55.91.91,0,0,1,.55-1.12l1.68-.65a.89.89,0,0,1,1.16.55.91.91,0,0,1-.55,1.12l0,0,1.32,1.91a.17.17,0,0,0,.18.07,10,10,0,0,1,2.4-.29h0a.17.17,0,0,0,.16-.11L136.5,18a1.13,1.13,0,0,1-.78-1.21,1.15,1.15,0,0,1,1.29-1l.6.08a1.15,1.15,0,0,1,1,1.24,1.13,1.13,0,0,1-.83,1l.15,1.33a.17.17,0,0,0,.13.15,10,10,0,0,1,2.85,1.11.17.17,0,0,0,.19,0l1.82-1.47-.28-.22a.89.89,0,0,1-.12-1.28.91.91,0,0,1,1.24-.1l1.41,1.12A.89.89,0,0,1,145.3,20a.91.91,0,0,1-1.24.1l0,0-1,2.11a.17.17,0,0,0,0,.19,10.06,10.06,0,0,1,1.72,2.38.17.17,0,0,0,.17.09l1.38-.19a1.07,1.07,0,0,1,.68-1.38,1.09,1.09,0,0,1,1.35.67l.32.85a1.09,1.09,0,0,1-.57,1.38,1.07,1.07,0,0,1-1.35-.43l-1.14.78a.17.17,0,0,0-.07.18,10.06,10.06,0,0,1,.36,2.68q0,.23,0,.46a.17.17,0,0,0,.1.16l2.15.94.07-.35a.89.89,0,0,1,1-.7Z"/></g><ellipse class="cls-4" cx="140.26" cy="24.41" rx="1.42" ry="1.18"/><circle class="cls-4" cx="135.14" cy="31.79" r="1.55"/><circle class="cls-5" cx="141.18" cy="30.98" r="1.11"/><circle class="cls-5" cx="137.08" cy="36.39" r="1.08"/><path class="cls-6" d="M129.79,28.87a11.86,11.86,0,0,1,4.69-9.46,10,10,0,0,0-1,.19.17.17,0,0,1-.18-.07L132,17.63l0,0a.91.91,0,0,0,.55-1.12.89.89,0,0,0-1.16-.55l-1.68.65a.91.91,0,0,0-.55,1.12.89.89,0,0,0,1.16.55l.33-.13.35,2.31a.17.17,0,0,1-.08.17,10.06,10.06,0,0,0-2.47,2,.17.17,0,0,1-.19,0L126.78,22a.85.85,0,0,0-1.39-1l-.72,1a.86.86,0,0,0,.12,1.18A.85.85,0,0,0,126,23l.09-.12,1.08,1.27a.17.17,0,0,1,0,.19A10,10,0,0,0,126,28a.17.17,0,0,1-.13.14l-2.26.53a1,1,0,0,0-.94-1,1,1,0,0,0-1,1v1.66a1,1,0,0,0,1,1,1,1,0,0,0,1-1v-.27l2.28.53a.17.17,0,0,1,.13.14,10,10,0,0,0,1.16,3.47.17.17,0,0,1,0,.19L125.67,36a1,1,0,0,0-1.35-.17,1,1,0,0,0-.18,1.31l.52.75a1,1,0,0,0,1.32.27,1,1,0,0,0,.32-1.25l2-.83a.17.17,0,0,1,.19,0,10.07,10.07,0,0,0,2.79,2.13.17.17,0,0,1,.09.17l-.27,2.48h0a1.11,1.11,0,0,0-1.42.66,1.08,1.08,0,0,0,.65,1.37l1.66.61a.75.75,0,0,0,1.08-.76,1.08,1.08,0,0,0-.65-1.39l0,0,1.35-2.12a.17.17,0,0,1,.18-.07,10.06,10.06,0,0,0,2,.2h.24a11.88,11.88,0,0,1-6.35-10.52Z"/><circle class="cls-4" cx="130.34" cy="33.82" r="1.12"/><path class="cls-5" d="M138.65,28.87h-.38a.43.43,0,1,1,0-.86h.38a.43.43,0,0,1,0,.86Z"/><path class="cls-5" d="M133.59,36.38h-.39a.43.43,0,1,1,0-.86h.39a.43.43,0,0,1,0,.86Z"/><path class="cls-4" d="M129.59,30.12h-.38a.43.43,0,0,1,0-.86h.38a.43.43,0,0,1,0,.86Z"/><path class="cls-5" d="M137.21,22.61h-.52a.43.43,0,0,1,0-.86h.52a.43.43,0,1,1,0,.86Z"/><path class="cls-4" d="M140.65,35h-.58a.43.43,0,0,1,0-.86h.58a.43.43,0,0,1,0,.86Z"/><ellipse class="cls-4" cx="132.57" cy="25.59" rx="2.96" ry="2.47" transform="translate(12.62 87.58) rotate(-38.26)"/></g><g id="_Group_5" data-name="&lt;Group&gt;"><path class="cls-3" d="M227.4,89.56a2.41,2.41,0,0,1,1.9,2.83l-1,4.86a2.41,2.41,0,0,1-2.94,1.88,2.46,2.46,0,0,1-1.78-2.87l0-.13-6.29.29a.45.45,0,0,0-.41.31,27.06,27.06,0,0,1-2.4,5.28.46.46,0,0,0,0,.53l2.78,3.3a2.9,2.9,0,0,1,4.3,3.87l-.81,1.05a3,3,0,0,1-4,.68,2.9,2.9,0,0,1-1.11-3.32l-4-1.76a.46.46,0,0,0-.52.11,27.35,27.35,0,0,1-6.41,5.19.46.46,0,0,0-.22.47l1,6.25.89-.36a2.41,2.41,0,0,1,3.18,1.45,2.45,2.45,0,0,1-1.45,3l-4.53,1.81a2.41,2.41,0,0,1-3.18-1.45,2.46,2.46,0,0,1,1.45-3.05l.12,0-3.66-5.13a.46.46,0,0,0-.49-.18,27.33,27.33,0,0,1-12.3.32.46.46,0,0,0-.48.2l-3.66,5.74.13,0a2.93,2.93,0,0,1,1.75,3.76,2,2,0,0,1-2.93,2.05L176,125a2.93,2.93,0,0,1-1.77-3.71,3,3,0,0,1,3.85-1.78l.1,0,.74-6.73a.46.46,0,0,0-.25-.46,27.29,27.29,0,0,1-7.55-5.77.46.46,0,0,0-.51-.11l-5.49,2.25a2.58,2.58,0,0,1-.86,3.38,2.63,2.63,0,0,1-3.58-.74l-1.41-2a2.63,2.63,0,0,1,.48-3.56,2.58,2.58,0,0,1,3.66.47l3.87-4.37a.46.46,0,0,0,.06-.53,27,27,0,0,1-3.14-9.41.46.46,0,0,0-.35-.38l-6.18-1.43v.72A2.65,2.65,0,0,1,155,93.46a2.6,2.6,0,0,1-2.6-2.62l0-4.49a2.68,2.68,0,0,1,2.69-2.66,2.62,2.62,0,0,1,2.55,2.63l6.13-1.44a.46.46,0,0,0,.35-.39,27,27,0,0,1,3.38-9.91.46.46,0,0,0,0-.53l-2.92-3.43-.25.34a2.3,2.3,0,0,1-3.31.38,2.34,2.34,0,0,1-.32-3.21l1.95-2.57a2.3,2.3,0,0,1,3.78,2.62l4.09,1.77a.46.46,0,0,0,.52-.11,27.27,27.27,0,0,1,6.7-5.35A.46.46,0,0,0,178,64L177,57.75l-.89.34A2.41,2.41,0,0,1,173,56.6a2.46,2.46,0,0,1,1.49-3L179,51.82a2.41,2.41,0,0,1,3.16,1.5,2.45,2.45,0,0,1-1.49,3l-.12,0,3.59,5.17a.46.46,0,0,0,.49.18,27.23,27.23,0,0,1,6.49-.78h0a.46.46,0,0,0,.44-.3l1.19-3.32a3.05,3.05,0,0,1-2.12-3.27,3.12,3.12,0,0,1,3.48-2.66l1.63.2A3.1,3.1,0,0,1,198.49,55a3.05,3.05,0,0,1-2.26,2.62l.41,3.6a.46.46,0,0,0,.36.39,27,27,0,0,1,7.73,3,.46.46,0,0,0,.52,0l4.92-4-.75-.59a2.41,2.41,0,0,1-.31-3.48,2.45,2.45,0,0,1,3.37-.26l3.82,3a2.41,2.41,0,0,1,.31,3.48,2.46,2.46,0,0,1-3.37.26l-.1-.08-2.64,5.72a.46.46,0,0,0,.09.51,27.27,27.27,0,0,1,4.67,6.45.46.46,0,0,0,.47.24l3.74-.52a2.91,2.91,0,0,1,1.83-3.74A3,3,0,0,1,225,73.4l.86,2.31a3,3,0,0,1-1.54,3.75,2.91,2.91,0,0,1-3.65-1.16l-3.1,2.1a.46.46,0,0,0-.18.5,27.25,27.25,0,0,1,1,7.26q0,.63,0,1.25a.46.46,0,0,0,.27.44l5.81,2.54.18-.94a2.41,2.41,0,0,1,2.83-1.9Z"/></g><ellipse class="cls-4" cx="202.94" cy="74.77" rx="3.84" ry="3.21"/><circle class="cls-4" cx="189.09" cy="94.77" r="4.2"/><circle class="cls-5" cx="205.44" cy="92.58" r="3.01"/><circle class="cls-5" cx="194.35" cy="107.25" r="2.92"/><path class="cls-6" d="M174.59,86.86A32.15,32.15,0,0,1,187.3,61.23a27,27,0,0,0-2.66.51.46.46,0,0,1-.49-.18l-3.59-5.17.12,0a2.45,2.45,0,0,0,1.49-3,2.41,2.41,0,0,0-3.16-1.5l-4.56,1.75a2.46,2.46,0,0,0-1.49,3,2.41,2.41,0,0,0,3.16,1.5l.89-.34L178,64a.46.46,0,0,1-.23.47,27.27,27.27,0,0,0-6.7,5.35.46.46,0,0,1-.52.11l-4.09-1.77a2.3,2.3,0,0,0-3.78-2.62l-1.95,2.57a2.34,2.34,0,0,0,.32,3.21,2.3,2.3,0,0,0,3.31-.38l.25-.34,2.92,3.43a.46.46,0,0,1,0,.53,27,27,0,0,0-3.38,9.91.46.46,0,0,1-.35.39l-6.13,1.44a2.62,2.62,0,0,0-2.55-2.63,2.68,2.68,0,0,0-2.69,2.66l0,4.49a2.6,2.6,0,0,0,2.6,2.62,2.65,2.65,0,0,0,2.64-2.62v-.72l6.18,1.43a.46.46,0,0,1,.35.38,27,27,0,0,0,3.14,9.41.46.46,0,0,1-.06.53l-3.87,4.37a2.58,2.58,0,0,0-3.66-.47,2.63,2.63,0,0,0-.48,3.56l1.41,2a2.63,2.63,0,0,0,3.58.74,2.58,2.58,0,0,0,.86-3.38l5.49-2.25a.46.46,0,0,1,.51.11,27.29,27.29,0,0,0,7.55,5.77.46.46,0,0,1,.25.46l-.74,6.73-.1,0a3,3,0,0,0-3.85,1.78A2.93,2.93,0,0,0,176,125l4.5,1.64a2,2,0,0,0,2.93-2.05,2.93,2.93,0,0,0-1.75-3.76l-.13,0L185.2,115a.46.46,0,0,1,.48-.2,27.27,27.27,0,0,0,5.46.55h.66a32.19,32.19,0,0,1-17.2-28.49Z"/><circle class="cls-4" cx="176.06" cy="100.26" r="3.04"/><path class="cls-5" d="M198.59,86.86h-1a1.16,1.16,0,0,1,0-2.33h1a1.16,1.16,0,0,1,0,2.33Z"/><path class="cls-5" d="M184.89,107.2h-1.06a1.16,1.16,0,0,1,0-2.33h1.06a1.16,1.16,0,0,1,0,2.33Z"/><path class="cls-4" d="M174,90.26h-1a1.16,1.16,0,0,1,0-2.33h1a1.16,1.16,0,1,1,0,2.33Z"/><path class="cls-5" d="M194.7,69.9h-1.42a1.16,1.16,0,1,1,0-2.33h1.42a1.16,1.16,0,1,1,0,2.33Z"/><path class="cls-4" d="M204,103.41h-1.56a1.16,1.16,0,0,1,0-2.33H204a1.16,1.16,0,1,1,0,2.33Z"/><ellipse class="cls-4" cx="182.12" cy="77.98" rx="8.01" ry="6.69" transform="translate(-9.17 129.51) rotate(-38.26)"/><g class="cls-8"><g id="_Group_6" data-name="&lt;Group&gt;"><path class="cls-3" d="M215.86,251.83a.89.89,0,0,1-.7-1l.35-1.79a.89.89,0,0,1,1.09-.69.91.91,0,0,1,.66,1.06v0l2.32-.11a.17.17,0,0,0,.15-.12,10,10,0,0,1,.89-1.95.17.17,0,0,0,0-.2l-1-1.22a1.07,1.07,0,0,1-1.59-1.43l.3-.39a1.09,1.09,0,0,1,1.48-.25,1.07,1.07,0,0,1,.41,1.23l1.48.65a.17.17,0,0,0,.19,0,10.1,10.1,0,0,1,2.37-1.92.17.17,0,0,0,.08-.17l-.38-2.31-.33.13a.89.89,0,0,1-1.17-.54.91.91,0,0,1,.53-1.13l1.67-.67a.89.89,0,0,1,1.17.54.91.91,0,0,1-.53,1.13l0,0,1.35,1.89a.17.17,0,0,0,.18.06,10.1,10.1,0,0,1,4.54-.12.17.17,0,0,0,.18-.07l1.35-2.12,0,0a1.08,1.08,0,0,1-.65-1.39.76.76,0,0,1,1.08-.76l1.66.61a1.08,1.08,0,0,1,.65,1.37,1.11,1.11,0,0,1-1.42.66h0l-.28,2.49a.17.17,0,0,0,.09.17,10.08,10.08,0,0,1,2.79,2.13.17.17,0,0,0,.19,0l2-.83a1,1,0,0,1,.32-1.25,1,1,0,0,1,1.32.28l.52.75a1,1,0,0,1-.18,1.32,1,1,0,0,1-1.35-.17l-1.43,1.61a.17.17,0,0,0,0,.19,10,10,0,0,1,1.16,3.48.17.17,0,0,0,.13.14l2.28.53v-.27a1,1,0,0,1,1-1,1,1,0,0,1,1,1V253a1,1,0,0,1-1,1,1,1,0,0,1-.94-1l-2.27.53a.17.17,0,0,0-.13.14,10,10,0,0,1-1.25,3.66.17.17,0,0,0,0,.19l1.08,1.27.09-.12a.85.85,0,0,1,1.22-.14.87.87,0,0,1,.12,1.18l-.72,1a.85.85,0,0,1-1.39-1l-1.51-.65a.17.17,0,0,0-.19,0,10.07,10.07,0,0,1-2.47,2,.17.17,0,0,0-.08.17l.35,2.32.33-.13A.89.89,0,0,1,236,264a.91.91,0,0,1-.55,1.12l-1.68.65a.89.89,0,0,1-1.17-.55.91.91,0,0,1,.55-1.12l0,0-1.32-1.91a.17.17,0,0,0-.18-.07,10.06,10.06,0,0,1-2.4.29h0a.17.17,0,0,0-.16.11l-.44,1.23a1.13,1.13,0,0,1,.78,1.21,1.15,1.15,0,0,1-1.29,1l-.6-.08a1.15,1.15,0,0,1-1-1.24,1.13,1.13,0,0,1,.84-1l-.15-1.33a.17.17,0,0,0-.13-.15,10,10,0,0,1-2.86-1.11.17.17,0,0,0-.19,0l-1.82,1.48.28.22a.89.89,0,0,1,.12,1.28.91.91,0,0,1-1.24.1L220,263a.89.89,0,0,1-.12-1.28.91.91,0,0,1,1.24-.1l0,0,1-2.11a.17.17,0,0,0,0-.19,10.07,10.07,0,0,1-1.73-2.38.17.17,0,0,0-.17-.09l-1.38.19a1.07,1.07,0,0,1-.68,1.38,1.09,1.09,0,0,1-1.35-.67l-.32-.85a1.09,1.09,0,0,1,.57-1.39,1.07,1.07,0,0,1,1.35.43l1.15-.78a.17.17,0,0,0,.07-.19,10.07,10.07,0,0,1-.36-2.68q0-.23,0-.46a.17.17,0,0,0-.1-.16l-2.15-.94-.07.35a.89.89,0,0,1-1,.7Z"/></g><ellipse class="cls-4" cx="224.9" cy="257.29" rx="1.42" ry="1.19"/><circle class="cls-4" cx="230.02" cy="249.91" r="1.55"/><circle class="cls-5" cx="223.97" cy="250.71" r="1.11"/><circle class="cls-5" cx="228.07" cy="245.3" r="1.08"/><path class="cls-6" d="M235.37,252.83a11.87,11.87,0,0,1-4.7,9.47,10,10,0,0,0,1-.19.17.17,0,0,1,.18.07l1.32,1.91,0,0a.91.91,0,0,0-.55,1.12.89.89,0,0,0,1.17.55l1.68-.65A.91.91,0,0,0,236,264a.89.89,0,0,0-1.17-.55l-.33.13-.35-2.32a.17.17,0,0,1,.08-.17,10.07,10.07,0,0,0,2.47-2,.17.17,0,0,1,.19,0l1.51.65a.85.85,0,0,0,1.39,1l.72-1a.87.87,0,0,0-.12-1.18.85.85,0,0,0-1.22.14l-.09.12L238,257.56a.17.17,0,0,1,0-.19,10,10,0,0,0,1.25-3.66.17.17,0,0,1,.13-.14l2.27-.53a1,1,0,0,0,.94,1,1,1,0,0,0,1-1v-1.66a1,1,0,0,0-1-1,1,1,0,0,0-1,1v.27l-2.28-.53a.17.17,0,0,1-.13-.14,10,10,0,0,0-1.16-3.48.17.17,0,0,1,0-.19l1.43-1.61a1,1,0,0,0,1.35.17,1,1,0,0,0,.18-1.32l-.52-.75a1,1,0,0,0-1.32-.28,1,1,0,0,0-.32,1.25l-2,.83a.17.17,0,0,1-.19,0,10.08,10.08,0,0,0-2.79-2.13.17.17,0,0,1-.09-.17l.28-2.49h0a1.11,1.11,0,0,0,1.42-.66,1.08,1.08,0,0,0-.65-1.37l-1.66-.61a.76.76,0,0,0-1.08.76,1.08,1.08,0,0,0,.65,1.39l0,0-1.35,2.12a.17.17,0,0,1-.18.07,10.07,10.07,0,0,0-2-.2H229a11.89,11.89,0,0,1,6.35,10.53Z"/><circle class="cls-4" cx="234.83" cy="247.88" r="1.12"/><path class="cls-5" d="M226.51,252.83h.38a.43.43,0,1,1,0,.86h-.38a.43.43,0,1,1,0-.86Z"/><path class="cls-5" d="M231.57,245.32H232a.43.43,0,0,1,0,.86h-.39a.43.43,0,1,1,0-.86Z"/><path class="cls-4" d="M235.58,251.57H236a.43.43,0,1,1,0,.86h-.38a.43.43,0,1,1,0-.86Z"/><path class="cls-5" d="M227.94,259.09h.52a.43.43,0,1,1,0,.86h-.52a.43.43,0,1,1,0-.86Z"/><path class="cls-4" d="M224.51,246.71h.58a.43.43,0,0,1,0,.86h-.58a.43.43,0,0,1,0-.86Z"/><ellipse class="cls-4" cx="232.59" cy="256.11" rx="2.96" ry="2.47" transform="translate(-108.63 199.02) rotate(-38.26)"/></g><g class="cls-9"><g id="_Group_7" data-name="&lt;Group&gt;"><path class="cls-3" d="M219.09,161.21a1.61,1.61,0,0,1-1.27-1.89l.64-3.24a1.61,1.61,0,0,1,2-1.25,1.64,1.64,0,0,1,1.18,1.91l0,.09,4.19-.19a.3.3,0,0,0,.27-.21,18,18,0,0,1,1.6-3.51.31.31,0,0,0,0-.35l-1.85-2.2a1.93,1.93,0,0,1-2.87-2.58l.54-.7a2,2,0,0,1,2.66-.46,1.93,1.93,0,0,1,.74,2.21L229.5,150a.3.3,0,0,0,.35-.08,18.21,18.21,0,0,1,4.27-3.46.3.3,0,0,0,.15-.31l-.68-4.17-.59.24a1.61,1.61,0,0,1-2.12-1,1.63,1.63,0,0,1,1-2l3-1.21a1.61,1.61,0,0,1,2.11,1,1.64,1.64,0,0,1-1,2l-.08,0,2.44,3.41a.3.3,0,0,0,.33.12,18.2,18.2,0,0,1,8.19-.21.31.31,0,0,0,.32-.13l2.44-3.82-.09,0a2,2,0,0,1-1.17-2.51,1.36,1.36,0,0,1,2-1.37l3,1.09a2,2,0,0,1,1.18,2.47,2,2,0,0,1-2.57,1.18l-.07,0-.5,4.48a.3.3,0,0,0,.16.3,18.17,18.17,0,0,1,5,3.84.3.3,0,0,0,.34.08l3.65-1.5a1.72,1.72,0,0,1,.57-2.25,1.75,1.75,0,0,1,2.39.5l.94,1.35a1.75,1.75,0,0,1-.32,2.37,1.72,1.72,0,0,1-2.44-.31L259.14,153a.3.3,0,0,0,0,.35,18,18,0,0,1,2.09,6.27.3.3,0,0,0,.23.26l4.11,1v-.48a1.76,1.76,0,0,1,1.76-1.74,1.73,1.73,0,0,1,1.73,1.74l0,3a1.78,1.78,0,0,1-1.79,1.77,1.75,1.75,0,0,1-1.7-1.75l-4.08,1a.3.3,0,0,0-.23.26,18,18,0,0,1-2.25,6.6.31.31,0,0,0,0,.35l1.95,2.29.17-.22a1.53,1.53,0,0,1,2.2-.25,1.56,1.56,0,0,1,.21,2.14l-1.3,1.71a1.53,1.53,0,0,1-2.51-1.74L257,174.27a.31.31,0,0,0-.35.08,18.16,18.16,0,0,1-4.46,3.56.31.31,0,0,0-.15.31l.63,4.17.6-.23a1.61,1.61,0,0,1,2.1,1,1.63,1.63,0,0,1-1,2l-3,1.17a1.61,1.61,0,0,1-2.1-1,1.63,1.63,0,0,1,1-2l.08,0-2.39-3.44a.3.3,0,0,0-.32-.12,18.14,18.14,0,0,1-4.32.52h0a.31.31,0,0,0-.29.2l-.79,2.21a2,2,0,0,1,1.41,2.18,2.08,2.08,0,0,1-2.32,1.77l-1.09-.14a2.07,2.07,0,0,1-1.82-2.24,2,2,0,0,1,1.51-1.74l-.27-2.4a.3.3,0,0,0-.24-.26,18,18,0,0,1-5.15-2,.3.3,0,0,0-.35,0l-3.28,2.66.5.4a1.61,1.61,0,0,1,.21,2.32,1.63,1.63,0,0,1-2.24.17l-2.55-2a1.61,1.61,0,0,1-.21-2.32,1.64,1.64,0,0,1,2.24-.17l.07.05,1.76-3.81a.3.3,0,0,0-.06-.34,18.16,18.16,0,0,1-3.11-4.29.31.31,0,0,0-.31-.16l-2.49.35a1.94,1.94,0,0,1-1.22,2.49,2,2,0,0,1-2.43-1.21l-.57-1.54a2,2,0,0,1,1-2.5,1.94,1.94,0,0,1,2.43.77l2.07-1.4a.3.3,0,0,0,.12-.33,18.15,18.15,0,0,1-.65-4.83q0-.42,0-.83A.31.31,0,0,0,225,161l-3.87-1.69-.12.62a1.61,1.61,0,0,1-1.89,1.27Z"/></g><ellipse class="cls-4" cx="235.38" cy="171.06" rx="2.56" ry="2.14"/><circle class="cls-4" cx="244.61" cy="157.74" r="2.8"/><circle class="cls-5" cx="233.72" cy="159.2" r="2"/><circle class="cls-5" cx="241.11" cy="149.43" r="1.95"/><path class="cls-6" d="M254.26,163a21.41,21.41,0,0,1-8.47,17.07,18,18,0,0,0,1.77-.34.3.3,0,0,1,.32.12l2.39,3.44-.08,0a1.63,1.63,0,0,0-1,2,1.61,1.61,0,0,0,2.1,1l3-1.17a1.63,1.63,0,0,0,1-2,1.61,1.61,0,0,0-2.1-1l-.6.23-.63-4.17a.31.31,0,0,1,.15-.31,18.16,18.16,0,0,0,4.46-3.56.31.31,0,0,1,.35-.08l2.72,1.18a1.53,1.53,0,0,0,2.51,1.74l1.3-1.71a1.56,1.56,0,0,0-.21-2.14,1.53,1.53,0,0,0-2.2.25l-.17.22L259,171.53a.31.31,0,0,1,0-.35,18,18,0,0,0,2.25-6.6.3.3,0,0,1,.23-.26l4.08-1a1.75,1.75,0,0,0,1.7,1.75,1.78,1.78,0,0,0,1.79-1.77l0-3a1.73,1.73,0,0,0-1.73-1.74,1.76,1.76,0,0,0-1.76,1.74v.48l-4.11-1a.3.3,0,0,1-.23-.26,18,18,0,0,0-2.09-6.27.3.3,0,0,1,0-.35l2.57-2.91a1.72,1.72,0,0,0,2.44.31,1.75,1.75,0,0,0,.32-2.37l-.94-1.35a1.75,1.75,0,0,0-2.39-.5,1.72,1.72,0,0,0-.57,2.25l-3.65,1.5a.3.3,0,0,1-.34-.08,18.17,18.17,0,0,0-5-3.84.3.3,0,0,1-.16-.3l.5-4.48.07,0a2,2,0,0,0,2.57-1.18,2,2,0,0,0-1.18-2.47l-3-1.09a1.36,1.36,0,0,0-2,1.37,2,2,0,0,0,1.17,2.51l.09,0-2.44,3.82a.31.31,0,0,1-.32.13,18.16,18.16,0,0,0-3.64-.37h-.44a21.44,21.44,0,0,1,11.46,19Z"/><circle class="cls-4" cx="253.28" cy="154.08" r="2.03"/><path class="cls-5" d="M238.28,163H239a.77.77,0,0,1,0,1.55h-.68a.77.77,0,1,1,0-1.55Z"/><path class="cls-5" d="M247.41,149.46h.7a.77.77,0,1,1,0,1.55h-.7a.77.77,0,1,1,0-1.55Z"/><path class="cls-4" d="M254.63,160.74h.68a.77.77,0,0,1,0,1.55h-.68a.77.77,0,0,1,0-1.55Z"/><path class="cls-5" d="M240.87,174.3h.94a.77.77,0,0,1,0,1.55h-.94a.77.77,0,0,1,0-1.55Z"/><path class="cls-4" d="M234.68,152h1a.77.77,0,1,1,0,1.55h-1a.77.77,0,0,1,0-1.55Z"/><ellipse class="cls-4" cx="249.25" cy="168.92" rx="5.33" ry="4.46" transform="translate(-51.07 190.61) rotate(-38.26)"/></g><g class="cls-2"><g id="_Group_8" data-name="&lt;Group&gt;"><path class="cls-3" d="M56.92,255.68a1.61,1.61,0,0,1-1.27-1.89l.64-3.24a1.61,1.61,0,0,1,2-1.25,1.64,1.64,0,0,1,1.18,1.91l0,.09,4.19-.19a.3.3,0,0,0,.27-.21,18,18,0,0,1,1.6-3.51.31.31,0,0,0,0-.35l-1.85-2.2a1.93,1.93,0,0,1-2.87-2.58l.54-.7a2,2,0,0,1,2.66-.46,1.93,1.93,0,0,1,.74,2.21l2.67,1.17a.3.3,0,0,0,.35-.08A18.21,18.21,0,0,1,71.95,241a.3.3,0,0,0,.15-.31l-.68-4.17-.59.24a1.61,1.61,0,0,1-2.12-1,1.63,1.63,0,0,1,1-2l3-1.21a1.61,1.61,0,0,1,2.11,1,1.64,1.64,0,0,1-1,2l-.08,0L76.19,239a.3.3,0,0,0,.33.12,18.2,18.2,0,0,1,8.19-.21.31.31,0,0,0,.32-.13l2.44-3.82-.09,0a2,2,0,0,1-1.17-2.51,1.36,1.36,0,0,1,2-1.37l3,1.09a2,2,0,0,1,1.18,2.47,2,2,0,0,1-2.57,1.18l-.07,0-.5,4.48a.3.3,0,0,0,.16.3,18.17,18.17,0,0,1,5,3.84.3.3,0,0,0,.34.08l3.65-1.5a1.72,1.72,0,0,1,.57-2.25,1.75,1.75,0,0,1,2.39.5l.94,1.35a1.75,1.75,0,0,1-.32,2.37,1.72,1.72,0,0,1-2.44-.31L97,247.48a.3.3,0,0,0,0,.35A18,18,0,0,1,99,254.1a.3.3,0,0,0,.23.26l4.11,1v-.48a1.76,1.76,0,0,1,1.76-1.74,1.73,1.73,0,0,1,1.73,1.74l0,3a1.78,1.78,0,0,1-1.79,1.77,1.75,1.75,0,0,1-1.7-1.75l-4.08,1a.3.3,0,0,0-.23.26,18,18,0,0,1-2.25,6.6.31.31,0,0,0,0,.35l1.95,2.29.17-.22a1.53,1.53,0,0,1,2.2-.25,1.56,1.56,0,0,1,.21,2.14l-1.3,1.71a1.53,1.53,0,0,1-2.51-1.74l-2.72-1.18a.31.31,0,0,0-.35.08A18.16,18.16,0,0,1,90,272.37a.31.31,0,0,0-.15.31l.63,4.17.6-.23a1.61,1.61,0,0,1,2.1,1,1.63,1.63,0,0,1-1,2l-3,1.17a1.61,1.61,0,0,1-2.1-1,1.63,1.63,0,0,1,1-2l.08,0-2.39-3.44a.3.3,0,0,0-.32-.12,18.14,18.14,0,0,1-4.32.52h0a.31.31,0,0,0-.29.2L80,277.14a2,2,0,0,1,1.41,2.18,2.08,2.08,0,0,1-2.32,1.77L78,280.95a2.07,2.07,0,0,1-1.82-2.24A2,2,0,0,1,77.69,277l-.27-2.4a.3.3,0,0,0-.24-.26,18,18,0,0,1-5.15-2,.3.3,0,0,0-.35,0L68.4,275l.5.4a1.61,1.61,0,0,1,.21,2.32,1.63,1.63,0,0,1-2.24.17l-2.55-2a1.61,1.61,0,0,1-.21-2.32,1.64,1.64,0,0,1,2.24-.17l.07.05,1.76-3.81a.3.3,0,0,0-.06-.34A18.16,18.16,0,0,1,65,265a.31.31,0,0,0-.31-.16l-2.49.35A1.94,1.94,0,0,1,61,267.65a2,2,0,0,1-2.43-1.21L58,264.9a2,2,0,0,1,1-2.5,1.94,1.94,0,0,1,2.43.77l2.07-1.4a.3.3,0,0,0,.12-.33,18.15,18.15,0,0,1-.65-4.83q0-.42,0-.83a.31.31,0,0,0-.18-.29l-3.87-1.69-.12.62a1.61,1.61,0,0,1-1.89,1.27Z"/></g><ellipse class="cls-4" cx="73.21" cy="265.52" rx="2.56" ry="2.14"/><circle class="cls-4" cx="82.44" cy="252.21" r="2.8"/><circle class="cls-5" cx="71.55" cy="253.66" r="2"/><circle class="cls-5" cx="78.94" cy="243.9" r="1.95"/><path class="cls-6" d="M92.09,257.47a21.41,21.41,0,0,1-8.47,17.07,18,18,0,0,0,1.77-.34.3.3,0,0,1,.32.12l2.39,3.44-.08,0a1.63,1.63,0,0,0-1,2,1.61,1.61,0,0,0,2.1,1l3-1.17a1.63,1.63,0,0,0,1-2,1.61,1.61,0,0,0-2.1-1l-.6.23-.63-4.17a.31.31,0,0,1,.15-.31,18.16,18.16,0,0,0,4.46-3.56.31.31,0,0,1,.35-.08l2.72,1.18a1.53,1.53,0,0,0,2.51,1.74l1.3-1.71a1.56,1.56,0,0,0-.21-2.14,1.53,1.53,0,0,0-2.2.25l-.17.22L96.81,266a.31.31,0,0,1,0-.35,18,18,0,0,0,2.25-6.6.3.3,0,0,1,.23-.26l4.08-1a1.75,1.75,0,0,0,1.7,1.75,1.78,1.78,0,0,0,1.79-1.77l0-3a1.73,1.73,0,0,0-1.73-1.74,1.76,1.76,0,0,0-1.76,1.74v.48l-4.11-1a.3.3,0,0,1-.23-.26,18,18,0,0,0-2.09-6.27.3.3,0,0,1,0-.35l2.57-2.91a1.72,1.72,0,0,0,2.44.31,1.75,1.75,0,0,0,.32-2.37l-.94-1.35a1.75,1.75,0,0,0-2.39-.5,1.72,1.72,0,0,0-.57,2.25l-3.65,1.5a.3.3,0,0,1-.34-.08,18.17,18.17,0,0,0-5-3.84.3.3,0,0,1-.16-.3l.5-4.48.07,0a2,2,0,0,0,2.57-1.18,2,2,0,0,0-1.18-2.47l-3-1.09a1.36,1.36,0,0,0-2,1.37,2,2,0,0,0,1.17,2.51l.09,0L85,238.72a.31.31,0,0,1-.32.13,18.16,18.16,0,0,0-3.64-.37h-.44a21.44,21.44,0,0,1,11.46,19Z"/><circle class="cls-4" cx="91.11" cy="248.55" r="2.03"/><path class="cls-5" d="M76.11,257.47h.68a.77.77,0,1,1,0,1.55h-.68a.77.77,0,1,1,0-1.55Z"/><path class="cls-5" d="M85.23,243.93h.7a.77.77,0,0,1,0,1.55h-.7a.77.77,0,1,1,0-1.55Z"/><path class="cls-4" d="M92.46,255.21h.68a.77.77,0,1,1,0,1.55h-.68a.77.77,0,1,1,0-1.55Z"/><path class="cls-5" d="M78.7,268.77h.94a.77.77,0,1,1,0,1.55H78.7a.77.77,0,1,1,0-1.55Z"/><path class="cls-4" d="M72.51,246.45h1a.77.77,0,1,1,0,1.55h-1a.77.77,0,1,1,0-1.55Z"/><ellipse class="cls-4" cx="87.08" cy="263.39" rx="5.33" ry="4.46" transform="translate(-144.39 110.49) rotate(-38.26)"/></g><g id="_Group_9" data-name="&lt;Group&gt;"><path class="cls-3" d="M29.34,186.28a.89.89,0,0,1-.7-1l.35-1.79a.89.89,0,0,1,1.09-.69.91.91,0,0,1,.66,1.06v0l2.32-.11a.17.17,0,0,0,.15-.12,10,10,0,0,1,.89-1.95.17.17,0,0,0,0-.2l-1-1.22a1.07,1.07,0,0,1-1.59-1.43l.3-.39a1.09,1.09,0,0,1,1.47-.25,1.07,1.07,0,0,1,.41,1.23l1.48.65a.17.17,0,0,0,.19,0,10.09,10.09,0,0,1,2.36-1.91.17.17,0,0,0,.08-.17l-.38-2.31-.33.13a.89.89,0,0,1-1.17-.54.91.91,0,0,1,.53-1.13l1.67-.67a.89.89,0,0,1,1.17.54.91.91,0,0,1-.53,1.13l0,0L40,177a.17.17,0,0,0,.18.06,10.09,10.09,0,0,1,4.54-.12.17.17,0,0,0,.18-.07l1.35-2.12,0,0a1.08,1.08,0,0,1-.65-1.39.75.75,0,0,1,1.08-.76l1.66.61a1.08,1.08,0,0,1,.65,1.37,1.11,1.11,0,0,1-1.42.66h0l-.27,2.48a.17.17,0,0,0,.09.17A10.07,10.07,0,0,1,50.11,180a.17.17,0,0,0,.19,0l2-.83a1,1,0,0,1,.32-1.25,1,1,0,0,1,1.32.27l.52.75a1,1,0,0,1-.18,1.31,1,1,0,0,1-1.35-.17l-1.43,1.61a.17.17,0,0,0,0,.19,10,10,0,0,1,1.16,3.47.17.17,0,0,0,.13.14l2.28.53v-.27a1,1,0,0,1,1-1,1,1,0,0,1,1,1v1.66a1,1,0,0,1-1,1,1,1,0,0,1-.94-1L52.8,188a.17.17,0,0,0-.13.14,10,10,0,0,1-1.25,3.66.17.17,0,0,0,0,.19l1.08,1.27.09-.12a.85.85,0,0,1,1.22-.14.86.86,0,0,1,.12,1.18l-.72,1a.85.85,0,0,1-1.39-1l-1.51-.65a.17.17,0,0,0-.19,0,10.06,10.06,0,0,1-2.47,2,.17.17,0,0,0-.08.17l.35,2.31.33-.13a.89.89,0,0,1,1.16.55.91.91,0,0,1-.55,1.12l-1.68.65a.89.89,0,0,1-1.16-.55.91.91,0,0,1,.55-1.12l0,0-1.32-1.91a.17.17,0,0,0-.18-.07,10,10,0,0,1-2.4.29h0a.17.17,0,0,0-.16.11l-.44,1.23a1.13,1.13,0,0,1,.78,1.21,1.15,1.15,0,0,1-1.29,1l-.6-.08A1.15,1.15,0,0,1,40,199a1.13,1.13,0,0,1,.83-1l-.15-1.33a.17.17,0,0,0-.13-.15,10,10,0,0,1-2.85-1.11.17.17,0,0,0-.19,0L35.7,197l.28.22a.89.89,0,0,1,.12,1.28.91.91,0,0,1-1.24.1l-1.41-1.12a.89.89,0,0,1-.12-1.28.91.91,0,0,1,1.24-.1l0,0,1-2.11a.17.17,0,0,0,0-.19,10.06,10.06,0,0,1-1.72-2.38.17.17,0,0,0-.17-.09l-1.38.19a1.07,1.07,0,0,1-.68,1.38,1.09,1.09,0,0,1-1.35-.67l-.32-.85a1.09,1.09,0,0,1,.57-1.38,1.07,1.07,0,0,1,1.35.43l1.14-.78a.17.17,0,0,0,.07-.18,10.06,10.06,0,0,1-.36-2.68q0-.23,0-.46a.17.17,0,0,0-.1-.16l-2.15-.94-.07.35a.89.89,0,0,1-1,.7Z"/></g><ellipse class="cls-4" cx="38.36" cy="191.73" rx="1.42" ry="1.18"/><circle class="cls-4" cx="43.48" cy="184.36" r="1.55"/><circle class="cls-5" cx="37.44" cy="185.16" r="1.11"/><circle class="cls-5" cx="41.53" cy="179.75" r="1.08"/><path class="cls-6" d="M48.82,187.27a11.86,11.86,0,0,1-4.69,9.46,10,10,0,0,0,1-.19.17.17,0,0,1,.18.07l1.32,1.91,0,0a.91.91,0,0,0-.55,1.12.89.89,0,0,0,1.16.55l1.68-.65a.91.91,0,0,0,.55-1.12.89.89,0,0,0-1.16-.55l-.33.13-.35-2.31a.17.17,0,0,1,.08-.17,10.06,10.06,0,0,0,2.47-2,.17.17,0,0,1,.19,0l1.51.65a.85.85,0,0,0,1.39,1l.72-1a.86.86,0,0,0-.12-1.18.85.85,0,0,0-1.22.14l-.09.12L51.44,192a.17.17,0,0,1,0-.19,10,10,0,0,0,1.25-3.66.17.17,0,0,1,.13-.14l2.26-.53a1,1,0,0,0,.94,1,1,1,0,0,0,1-1v-1.66a1,1,0,0,0-1-1,1,1,0,0,0-1,1v.27l-2.28-.53a.17.17,0,0,1-.13-.14,10,10,0,0,0-1.16-3.47.17.17,0,0,1,0-.19L53,180.13a1,1,0,0,0,1.35.17,1,1,0,0,0,.18-1.31l-.52-.75a1,1,0,0,0-1.32-.27,1,1,0,0,0-.32,1.25l-2,.83a.17.17,0,0,1-.19,0,10.07,10.07,0,0,0-2.79-2.13.17.17,0,0,1-.09-.17l.27-2.48h0a1.11,1.11,0,0,0,1.42-.66,1.08,1.08,0,0,0-.65-1.37l-1.66-.61a.75.75,0,0,0-1.08.76,1.08,1.08,0,0,0,.65,1.39l0,0-1.35,2.12a.17.17,0,0,1-.18.07,10.06,10.06,0,0,0-2-.2h-.24a11.88,11.88,0,0,1,6.35,10.52Z"/><circle class="cls-4" cx="48.28" cy="182.33" r="1.12"/><path class="cls-5" d="M40,187.27h.38a.43.43,0,1,1,0,.86H40a.43.43,0,1,1,0-.86Z"/><path class="cls-5" d="M45,179.77h.39a.43.43,0,1,1,0,.86H45a.43.43,0,1,1,0-.86Z"/><path class="cls-4" d="M49,186h.38a.43.43,0,1,1,0,.86H49a.43.43,0,1,1,0-.86Z"/><path class="cls-5" d="M41.4,193.53h.52a.43.43,0,0,1,0,.86H41.4a.43.43,0,0,1,0-.86Z"/><path class="cls-4" d="M38,181.17h.58a.43.43,0,0,1,0,.86H38a.43.43,0,0,1,0-.86Z"/><ellipse class="cls-4" cx="46.05" cy="190.55" rx="2.96" ry="2.47" transform="translate(-108.1 69.43) rotate(-38.26)"/><g id="_Group_10" data-name="&lt;Group&gt;"><path class="cls-3" d="M99,197.25a3.41,3.41,0,0,1-2.69-4l1.35-6.87a3.41,3.41,0,0,1,4.16-2.65,3.47,3.47,0,0,1,2.51,4.06l0,.18,8.9-.41a.64.64,0,0,0,.58-.45,38.27,38.27,0,0,1,3.4-7.46.65.65,0,0,0-.06-.75l-3.93-4.67a4.11,4.11,0,0,1-6.09-5.47l1.14-1.49a4.17,4.17,0,0,1,5.65-1,4.11,4.11,0,0,1,1.56,4.7l5.67,2.49a.65.65,0,0,0,.74-.16,38.68,38.68,0,0,1,9.06-7.34.65.65,0,0,0,.31-.66l-1.45-8.85-1.26.5a3.41,3.41,0,0,1-4.49-2.06,3.47,3.47,0,0,1,2-4.31l6.41-2.57a3.41,3.41,0,0,1,4.49,2.06,3.48,3.48,0,0,1-2,4.32l-.17.07,5.17,7.25a.64.64,0,0,0,.69.25,38.66,38.66,0,0,1,17.4-.45.65.65,0,0,0,.68-.29l5.18-8.12-.18-.07a4.15,4.15,0,0,1-2.48-5.32,2.89,2.89,0,0,1,4.15-2.9l6.36,2.32a4.15,4.15,0,0,1,2.5,5.25,4.24,4.24,0,0,1-5.45,2.51l-.15-.05-1.05,9.52a.65.65,0,0,0,.35.65,38.6,38.6,0,0,1,10.69,8.16.65.65,0,0,0,.72.16l7.76-3.18a3.65,3.65,0,0,1,1.22-4.77,3.73,3.73,0,0,1,5.07,1.05l2,2.86a3.72,3.72,0,0,1-.68,5,3.65,3.65,0,0,1-5.18-.66l-5.47,6.18a.65.65,0,0,0-.08.74,38.21,38.21,0,0,1,4.44,13.31.65.65,0,0,0,.49.54l8.74,2v-1a3.74,3.74,0,0,1,3.74-3.71,3.67,3.67,0,0,1,3.67,3.71l-.06,6.35a3.79,3.79,0,0,1-3.81,3.77,3.71,3.71,0,0,1-3.61-3.73l-8.67,2a.65.65,0,0,0-.49.55,38.21,38.21,0,0,1-4.78,14,.65.65,0,0,0,.07.74l4.14,4.86.36-.47a3.25,3.25,0,0,1,4.68-.54,3.32,3.32,0,0,1,.45,4.54l-2.76,3.64a3.25,3.25,0,0,1-5.34-3.71l-5.78-2.5a.65.65,0,0,0-.74.16,38.57,38.57,0,0,1-9.48,7.56.65.65,0,0,0-.32.66l1.33,8.87,1.26-.49a3.41,3.41,0,0,1,4.46,2.12,3.47,3.47,0,0,1-2.1,4.29l-6.45,2.48a3.41,3.41,0,0,1-4.46-2.12,3.47,3.47,0,0,1,2.1-4.29l.17-.07-5.07-7.32a.65.65,0,0,0-.69-.26,38.52,38.52,0,0,1-9.18,1.1h0a.65.65,0,0,0-.62.43l-1.68,4.7a4.32,4.32,0,0,1,3,4.62,4.41,4.41,0,0,1-4.93,3.76l-2.31-.29a4.39,4.39,0,0,1-3.86-4.76,4.32,4.32,0,0,1,3.2-3.71l-.58-5.09a.65.65,0,0,0-.51-.56,38.24,38.24,0,0,1-10.94-4.25.65.65,0,0,0-.73.06l-7,5.65,1.06.84a3.41,3.41,0,0,1,.45,4.92,3.47,3.47,0,0,1-4.76.36l-5.41-4.29a3.41,3.41,0,0,1-.45-4.92,3.48,3.48,0,0,1,4.76-.36l.15.12,3.73-8.09a.64.64,0,0,0-.13-.72,38.57,38.57,0,0,1-6.61-9.12.65.65,0,0,0-.66-.34l-5.29.74a4.11,4.11,0,0,1-2.59,5.3,4.18,4.18,0,0,1-5.17-2.56l-1.22-3.26a4.19,4.19,0,0,1,2.17-5.31,4.11,4.11,0,0,1,5.16,1.63l4.39-3a.65.65,0,0,0,.26-.71,38.54,38.54,0,0,1-1.38-10.26q0-.89,0-1.77a.65.65,0,0,0-.39-.63l-8.22-3.59-.26,1.33a3.41,3.41,0,0,1-4,2.69Z"/></g><ellipse class="cls-4" cx="133.62" cy="218.16" rx="5.43" ry="4.54"/><circle class="cls-4" cx="153.22" cy="189.88" r="5.94"/><circle class="cls-5" cx="130.08" cy="192.97" r="4.25"/><circle class="cls-5" cx="145.78" cy="172.23" r="4.13"/><path class="cls-6" d="M173.73,201.06a45.47,45.47,0,0,1-18,36.25,38.26,38.26,0,0,0,3.77-.73.65.65,0,0,1,.69.26l5.07,7.32-.17.07a3.47,3.47,0,0,0-2.1,4.29,3.41,3.41,0,0,0,4.46,2.12l6.45-2.48a3.47,3.47,0,0,0,2.1-4.29,3.41,3.41,0,0,0-4.46-2.12l-1.26.49-1.33-8.87a.65.65,0,0,1,.32-.66,38.57,38.57,0,0,0,9.48-7.56.65.65,0,0,1,.74-.16l5.78,2.5a3.25,3.25,0,0,0,5.34,3.71l2.76-3.64a3.32,3.32,0,0,0-.45-4.54,3.25,3.25,0,0,0-4.68.54l-.36.47-4.14-4.86a.65.65,0,0,1-.07-.74,38.21,38.21,0,0,0,4.78-14,.65.65,0,0,1,.49-.55l8.67-2a3.71,3.71,0,0,0,3.61,3.73,3.79,3.79,0,0,0,3.81-3.77l.06-6.35a3.67,3.67,0,0,0-3.67-3.71,3.74,3.74,0,0,0-3.74,3.71v1l-8.74-2a.65.65,0,0,1-.49-.54A38.21,38.21,0,0,0,184,180.59a.65.65,0,0,1,.08-.74l5.47-6.18a3.65,3.65,0,0,0,5.18.66,3.72,3.72,0,0,0,.68-5l-2-2.86a3.73,3.73,0,0,0-5.07-1.05,3.65,3.65,0,0,0-1.22,4.77l-7.76,3.18a.65.65,0,0,1-.72-.16A38.6,38.6,0,0,0,168,165a.65.65,0,0,1-.35-.65l1.05-9.52.15.05a4.24,4.24,0,0,0,5.45-2.51,4.15,4.15,0,0,0-2.5-5.25l-6.36-2.32a2.89,2.89,0,0,0-4.15,2.9,4.15,4.15,0,0,0,2.48,5.32l.18.07-5.18,8.12a.65.65,0,0,1-.68.29,38.58,38.58,0,0,0-7.72-.78h-.94a45.54,45.54,0,0,1,24.34,40.31Z"/><circle class="cls-4" cx="171.64" cy="182.11" r="4.31"/><path class="cls-5" d="M139.78,201.06h1.45a1.65,1.65,0,1,1,0,3.29h-1.45a1.65,1.65,0,1,1,0-3.29Z"/><path class="cls-5" d="M159.16,172.3h1.49a1.65,1.65,0,1,1,0,3.29h-1.49a1.65,1.65,0,0,1,0-3.29Z"/><path class="cls-4" d="M174.51,196.26H176a1.65,1.65,0,0,1,0,3.29h-1.44a1.65,1.65,0,0,1,0-3.29Z"/><path class="cls-5" d="M145.28,225.05h2a1.65,1.65,0,0,1,0,3.29h-2a1.65,1.65,0,1,1,0-3.29Z"/><path class="cls-4" d="M132.12,177.65h2.21a1.65,1.65,0,1,1,0,3.29h-2.21a1.65,1.65,0,1,1,0-3.29Z"/><ellipse class="cls-4" cx="163.08" cy="213.63" rx="11.33" ry="9.46" transform="translate(-97.25 146.86) rotate(-38.26)"/></svg>