<svg id="Layer_1" data-name="Layer 1" xmlns="http://www.w3.org/2000/svg" viewBox="0 0 1000 1306"><defs><style>.cls-1{fill:#00a651;opacity:0.5;}.cls-1,.cls-2{stroke:#fff;stroke-linecap:round;stroke-linejoin:round;stroke-width:2px;}.cls-2{fill:#7c7c7c;}</style></defs><title>lb-map</title><path id="LBN3022" class="cls-1" d="M495.5,1017l-11.2-3.1-30.5-3.9-2.3-1.9-2.8-3.5-6.5-13.8-2-5.8-3.8-4.9L423,972l-13-4.3-3.3,1.4-4.5,3.1-9.2,9.4-7.1,8.7-5.5,9-6.6,8.4-5.1,2.1-12.6-4.4-2.3-17.1-3-4.2-3.3-7.3-1.1-3-2.7-10.3-1.8-18.9,5.8-4.9,2.8-2.9,4.9-7,1.8-3.6,1.7-4.9,9.2-38.3,7.6-20.5,4.5-8.4,38.2-58,6.5-3.5,2.6-2,3.4-4.8,5.4-6,.5-2.2-.1-1.8-10.2-10.4,18.2-26.6,4.9-.1,7.5.9,4-.3,2-.8,1.8-1.2,1.4-1.7,4.3-7.1-2.9-5.9-21.9-15.8,43.1-51.5,11.3-19.7,2.8-6.5.6-1.9L511,618l29.9-27.3,7.7-3.5,18.6-28.3,29.7-59.7,2.4-48.7,1.1-5.7,5.4-13.3,15.2-1.3,3.5-1.4,2.6-2.8,13.8-23.5,2-7.1,2.3-20.7,24.7-31.5,20.3-21.1,7.4-26.1,1.3-2.7,2.4-3.3,5.7-6,13.5-10.7,5.5-5.5,3.3-4,18.2-37.6.6-2-2.7-9.9,12.7-16.4,1.4-3.7.1-3.5.6-2.9,3.3-4.7L793,160.2l1.6-1.8,8.3-3.4,14.2-1.7,1.9,3.5,1.7.6h3.7l14.7-4.5,19.4-.9,18.2,1.5,9.1,3.2,4.3,13.6,6.5,10.4,9,7.5,11.2,4.9,9.6,11.9,4.8,3.2,4.9-1.7,10.5,7.6,3.7,7.1-.6,8.9-2.3,13.2-1.8,5.5-2.4,3.8-2.1,4.2-.6,6.6,1.8,6.4,3.3,6.3,14.3,20.2L967,304l4.7,2.1,4.9-.4,4.3,1.1,3.4,6.2L983,323.5l-6.4,8.8-5,10.4,3.1,15.1,4.3,11.5,16.1,16,3.9,8.6-18.7,20.7-15.4,25.9L935.2,466l-12.9,16.5-3.9,11.3-1.3,9.4-3.6,7.4L902.7,516l-9.1.5-14.3-5.3-7.6-.7-14,7.1-22.1,28.2L809.2,569l-10.4,12.9-9.1,14.3-14.2,28.9,1.2,2.9,4.2,7.6,4.2,4.9,19.5,15.3,26.1,4.4,11.4,7.1,1.3,16.4-8,10.6-12.7,2.1-25.1-6-34-16.9L752,671.3l-10,3.8-9.3,7.6L722,689.1l-13.8.4-5.4-3.4-8.4-10.7-4.4-2.6-23.8,14.7-11.5,5-12.3,3.2-10.7,4.4-6.6,8.7-8.9,17-21.9,18.8-9.1,13.7-4.1,9.1L569,778.6l-4.9,7.1-1,6.7,1.9,14.4-1.8,7.7-3.1,3.1-8.7,3.3-2.6,2.7-2.6,17,8.8,5.5,14.7,2.8,15.5,8.7,9.4,2.6,12.2,6.2,11.1,8.2,5.9,9-2.2,14.8-10.2,12.1-13.6,9-12.6,5.8-15.6-.2L554,930.2l-7.6,10.6,9,16.1-10.5,25.4-20.6,17.4L495.5,1017Z"/><path id="LBN3023" class="cls-1" d="M817.1,153.3,802.9,155l-8.3,3.4-1.6,1.8-29.5,22.9-3.3,4.7-.6,2.9-.1,3.5-1.4,3.7-12.7,16.4,2.7,9.9-.6,2-18.2,37.6-3.3,4-5.5,5.5L707,284l-5.7,6-2.4,3.3-1.3,2.7-7.4,26.1-20.3,21.1-24.7,31.5-2.3,20.7-2,7.1L627.1,426l-2.6,2.8-3.5,1.4-15.2,1.3-6.4-3.4-4.1,1.4-4.4-.3-4.5-.9-22.1-10.8-3.7-3.5-4.7-1.9-1.8-.2-1.8.4-1.5,2.4-1.7,3.9-1.2,1.4-1.5.9-3.6.3-5-1.4-4-1.9-4.8.2-3.8-1.2L512,408.5l-5.2-2.3-8.3-6.4-3.6-1-5-.4-8.8.9-8.3,2-4.8,1.9-2.9.3-16.4-.6-9.6,2.2-2.4.1-12-1.8-44-22.3-17.1-1.7-.8-.4,1.8-3.6.4-25.2,3.1-25.1,8.1-21.3,15.6-13.6,11.3,9.4L414,282.8l10-25.5,8.9-16.5,36.8-20.3,11.5-15.7-12-19.4v-5l12.3,3.3,52.6-13.8L569.6,136l10.7-7.8,6.8-7.2,3.7-11.3.6-37.8-1.9-17.1-4.1-14.2-7.1-9.2,8.5-.3,5.8,1.6,4.8,2.3L609,44.5l14.4,4.2,15.2.4,17.5-2.5,45.6,3.3,2.8-.9,8-4.9,4-1,3.4,1.5,7.8,5.9,4.1,1.4,40-2.3,6.6-3,6.1-6.5,2.4-7.5.3-15.8,2.2-6.1L803.2,1l9.9,6.5L828.7,36l13.4,12.1,15.7,5.4,16.4-.4,16.1-5.2-2.6,25.4-4.8,3.8-7-5.8-9.8-2.8-9.8,6.1-1.4,9.7.8,11.9-3,12.6-13,10.2-18.1,9.9-11.1,11.9,6.6,12.5Z"/><path id="LBN3024" class="cls-1" d="M298.5,628.4l-.1,3.7-7.7,23.7-7.3.6-1.8,2-2.4,3.7-2.4,1.5-8.8.3-12.7-2.7.2-5.8-2.2-9.4-4.1-7.7-2.2-6.6,3.6-6.3,7.1-2.4,8.7,1.4,7.6,3.4,4.1,3.6h4.5l6.5-3.6,9.4.6Z"/><path id="LBN3025" class="cls-1" d="M605.8,431.5l-5.4,13.3-1.1,5.7-2.4,48.7-29.7,59.7-18.6,28.3-7.7,3.5L511,618l-7.4,9.2-.6,1.9-2.8,6.5-11.3,19.7-43.1,51.5,21.9,15.8,2.9,5.9-4.3,7.1-1.4,1.7-1.8,1.2-2,.8-4,.3-7.5-.9-4.9.1-18.2,26.6,10.2,10.4.1,1.8-.5,2.2-5.4,6-3.4,4.8-2.6,2-6.5,3.5-38.2,58-4.5,8.4L368.1,883l-9.2,38.3-1.7,4.9-1.8,3.6-4.9,7-2.8,2.9-5.8,4.9,4-22.5-1.3-5.1-2.5-1.2-3.3-1.1-2.1-1.3-3.1-3-.9-2.6.2-2.3,1.3-4.8.6-6.7.3-16.1-1.9-6.2-2.7-3.9-3-.6-2.1.6-2.1,1.2-1.6,1.5-1.6.8-3.3.3-5.9,1.2-3.2.1-2.6,1-2.3,3.2-4.1,1.4-2.2,3.3-4.1,3.1-1.3.4-3,.3-4.4,1.1-3.6-.2-1.7.2-3.7,1.6-7.7,2.9-4.7,1.1-6.6-.4-1.8.3-2.7,3.1-2.6-.3-7.3.3L225,892.2l-17.1-8.8-19.5-.9-3.4-1.4,15.7-42.7-4.2-5.5,10.3-9,7.8-32.7,11.2-7.2-.4-9.6,26.1-64.2,2.7-15.8,1.1-33.2,12.7,2.7,8.8-.3,2.4-1.5,2.4-3.7,1.8-2,7.3-.6,7.7-23.7.1-3.7,6.2.5,9.7-3.5,4.2-5.4,6.3-15.9,3.5-6.5.2-3.3-1-1.2-4.2-.4,5.7-6.7,8-19.2,4.8-7.9,4.4-1.6,11-.1,2.7-3.3-.3-7.3-3.1-3.8-3.5-2.3-2.1-3-.2-19.5,10.9-35.1,2.9-24.9-2.1-9.4L353.1,431,351,419.7V392.3l2.1-5.9,9.4-6.8.3-.6.8.4,17.1,1.7,44,22.3,12,1.8,2.4-.1,9.6-2.2,16.4.6,2.9-.3,4.8-1.9,8.3-2,8.8-.9,5,.4,3.6,1,8.3,6.4,5.2,2.3,13.2,8.4,3.8,1.2,4.8-.2,4,1.9,5,1.4,3.6-.3,1.5-.9,1.2-1.4,1.7-3.9,1.5-2.4,1.8-.4,1.8.2,4.7,1.9,3.7,3.5,22.1,10.8,4.5.9,4.4.3,4.1-1.4,6.4,3.4Z"/><path id="LBN3059" class="cls-1" d="M356.1,1005.4l12.6,4.4,5.1-2.1,6.6-8.4,5.5-9,7.1-8.7,9.2-9.4,4.5-3.1,3.3-1.4,13,4.3,13.4,8.1,3.8,4.9,2,5.8,6.5,13.8,2.8,3.5,2.3,1.9,30.5,3.9,11.2,3.1-15.9,9.5-10.2,12.2-13.3,26.6-10.8,12.1-7.9,5-9.2,4.1-9.4,2.7-8.8.9-11.7,3.2-25.2,26.5-13.3,10.6-20,4.5-5.9,6,2.1,14.5-.5,3.4-4.1-3.4-8.4-6.2-12-19-3.8-4.7-7.8.8-4.4,7.6-3.9,10.8-6.1,10.8-5.1,17.5-1.6,39.1-3.6,20.2-5.7,13.3-12.3,22.2-3.3,12-20.3,1.7-31.8,13.7-37.4,9.8-8.8-1.2-6.2-8.1-4.6-9.4-6.5-8.1-7.4-6-3.9-1.7.9-5.7.6-9.1-.7-6.3,1.2-5.4.4-5.5,8.1-21.6,1.9-2.9,3.6-.4,5,1.1h1.6l2.5-1.4,3.1-3,1.6-2.5,1.2-3.1.5-8.1.6-2,2.8-.7h6.2l1.8-.4,2.1-.9,6.5-4,.9-1.2-.9-2.8-3.2-2.5-3.4-1.5-1.2-1.4.2-1.8,1.2-1.9,3.7-2.3,2.7-1.2,4.3-1.5,3.2-2.5,3.7-3.9,18.3-23.3,3.1-3.1,2.2-3.8,1.2-4.2-.1-12.9-.5-3.2.5-4.4,6.4-9-10.3,2-3,2.2-2.7.5-4.3-.2-17.5-3.3-12.9-4.2-10.3-11.1,2.9-12.5-1.6-5.1-3.4-2.9-7.1-4-1.8-.3-1.7.3-7.4-.4-1.9-.3-3.6-1.8-2-1.9,1.3-.9,6.3-.2,2.4-1.2,2-2.3,2.1-5,.9-2.8.4-6.7.4-1.8,1.7-2,3.2-1.9,6.7-1.8,3.4.3,2.4,1.2,1,1.7,2.1,5.2,1.4,1.4,3.1,2.5,1.1,1.3,2.3,3.8,1.5.9,1.4-.5,1.1-2-.8-6.8,1-3.9,12-21.8.5-1.8.1-3.6-1.1-1.3-1.4-.2-3.5,1-1.3-.4-.3-1.3.9-2.5,5.4-8.8,1.5-3.2,1.7-2.4,1.8-1.4,7.5-.6,4.2-.8,1.8-.9,1.5-1.6.6-3.8-.7-2.2-1.5-1.5-2.7-1.9,6.4-3.8,28.7-6.6,5,1.1,4.3-.1,2-.4,3.8-1.3,7.4-4.2,4-1.2h3.8l3.6-1.1,1.6-1.3,2.8-3.6,1.7-.9h1.5l2,1.2-.5,6.7L282,978.9l-.1,2.1,2.2,51.6-1.3,10.6,2,6.5,10.3,23,7.4-21.2,3.3-5.3,2.8-.8,3.6-2,2.7-.5,4.3,1.6,2.1.2,3.8-.5,2.1-1.3,1.7-2.1.7-1.6,2.9-8.5,11.4-10.9,3.9-1.6,2.7-2.5,5.6-10.3Z"/><path id="LBN3060" class="cls-1" d="M341.9,944.6l1.8,18.9,2.7,10.3,1.1,3,3.3,7.3,3,4.2,2.3,17.1-5.6,10.3-2.7,2.5-3.9,1.6-11.4,10.9-2.9,8.5-.7,1.6-1.7,2.1-2.1,1.3-3.8.5-2.1-.2-4.3-1.6-2.7.5-3.6,2-2.8.8-3.3,5.3-7.4,21.2-10.3-23-2-6.5,1.3-10.6L281.9,981l.1-2.1,3.2-19.7.5-6.7-2-1.2h-1.5l-1.7.9-2.8,3.6-1.6,1.3-3.6,1.1h-3.8l-4,1.2-7.4,4.2-3.8,1.3-2,.4-4.3.1-5-1.1-28.7,6.6-6.4,3.8,2.7,1.9,1.5,1.5.7,2.2-.6,3.8-1.5,1.6-1.8.9-4.2.8-7.5.6-1.8,1.4-1.7,2.4-1.5,3.2-5.4,8.8-.9,2.5.3,1.3,1.3.4,3.5-1,1.4.2,1.1,1.3-.1,3.6-.5,1.8-12,21.8-1,3.9.8,6.8-1.1,2-1.4.5-1.5-.9-2.3-3.8-1.1-1.3-3.1-2.5L168,1039l-2.1-5.2-1-1.7-2.4-1.2-3.4-.3-6.7,1.8-3.2,1.9-1.7,2-.4,1.8-.4,6.7-.9,2.8-2.1,5-2,2.3-2.4,1.2-6.3.2-1.3.9,2,1.9,3.6,1.8,1.9.3,7.4.4,1.7-.3,1.8.3,7.1,4,3.4,2.9,1.6,5.1-2.9,12.5,10.3,11.1,12.9,4.2,17.5,3.3,4.3.2,2.7-.5,3-2.2,10.3-2-6.4,9-.5,4.4.5,3.2.1,12.9-1.2,4.2-2.2,3.8-3.1,3.1-18.3,23.3-3.7,3.9-3.2,2.5L178,1172l-2.7,1.2-3.7,2.3-1.2,1.9-.2,1.8,1.2,1.4,3.4,1.5,3.2,2.5.9,2.8-.9,1.2-6.5,4-2.1.9-1.8.4h-6.2l-2.8.7-.6,2-.5,8.1-1.2,3.1-1.6,2.5-3.1,3-2.5,1.4h-1.6l-5-1.1-3.6.4-1.9,2.9-8.1,21.6-.4,5.5-1.2,5.4.7,6.3-.6,9.1-.9,5.7-3.4-1.6H115L90.5,1277l-4.8-.3-9.4-2.5-3.9-.3-4.4,1.7-7.3,5.7-2.9,1.2-53.1-4v-1.3l.8-3.4-3,.4-1-1v-2l-.5-2.4,4.1-8.8,5.9-9,7.2-6.9,14.7-6.2,4.7-7.9,4.1-9,4.5-6.7-4-5.4,4-.8,2.2,1.1,2.4,5.1,19.9-43.4,3-23.6-13.9-20.2L74,1116.5l10-14.8L96.6,1067l1.6-10.4.4-21.4,2.5-11.1,12.1-18.2,4.2-9.8-2.7-10,34.5-26.5,17.3-18.3,7.5-23.5,1.4-10.3,9.6-26.4,3.4,1.4,19.5.9,17.1,8.8,16.3,3.1,7.3-.3,2.6.3,2.7-3.1,1.8-.3,6.6.4,4.7-1.1,7.7-2.9,3.7-1.6,1.7-.2,3.6.2,4.4-1.1,3-.3,1.3-.4,4.1-3.1,2.2-3.3,4.1-1.4,2.3-3.2,2.6-1,3.2-.1,5.9-1.2,3.3-.3,1.6-.8,1.6-1.5,2.1-1.2,2.1-.6,3,.6,2.7,3.9,1.9,6.2-.3,16.1-.6,6.7-1.3,4.8-.2,2.3.9,2.6,3.1,3,2.1,1.3,3.3,1.1,2.5,1.2,1.3,5.1-4,22.5Z"/><circle id="_0" data-name="0" class="cls-2" cx="113.4" cy="1073.8"/><circle id="_1" data-name="1" class="cls-2" cx="311.9" cy="1034.7"/><circle id="_2" data-name="2" class="cls-2" cx="427.1" cy="397.4"/></svg>