<svg id="Layer_1" data-name="Layer 1" xmlns="http://www.w3.org/2000/svg" viewBox="0 0 210 210"><defs><style>.cls-1{fill:#00a651;}</style></defs><title>lebanon</title><path class="cls-1" d="M103.88,63l-1.47,2.21a14.12,14.12,0,0,1-4,4,20.13,20.13,0,0,0-4,3.68l-1.47,1.47,1.47-.37c.74-.37,1.84-.37,2.21-.74s.74,0,.74.37h0A11.38,11.38,0,0,1,92.84,77c-1.84.74-4.42,2.58-4.78,3.31h1.47a1.64,1.64,0,0,1,2.21.74c.74,1.1.37,1.84-1.1,1.84a5.7,5.7,0,0,0-4.42,2.94c-.37,1.1-1.1,1.84-2.94,2.58-3.31,1.47-7.36,4-7.73,5.15h0c0,1.1,2.58,1.1,6.62-.37.74-.37,1.1,0,1.84,1.47.74,1.84.74,1.84-1.1,4.42a7.94,7.94,0,0,1-3.68,2.94c-2.58.37-3.31,1.1-6.62,4.42-1.47,1.47-2.94,2.94-3.31,2.94h-.37a5.54,5.54,0,0,0,2.94,1.47A6.86,6.86,0,0,0,75.55,109c2.58-1.84,2.58-1.84,3.68-.74a3.34,3.34,0,0,1,1.1,2.58c0,1.1-.74,1.84-3.68,3.31a32,32,0,0,0-7.36,5.52c-2.94,2.94-3.68,3.31-5.15,3.31H62.67a4.55,4.55,0,0,1,.74,1.1,4,4,0,0,0,2.21.74c2.21,0,9.2-2.58,11.41-4.42,2.21-1.47,4-1.84,5.52-.74,2.58,1.47-1.84,4.42-9.57,7-2.94.74-5.52,1.84-5.89,1.84h0a1.35,1.35,0,0,0,.37,1.1c.74,1.1,5.15,1.1,8.46,0a40.07,40.07,0,0,0,7.73-3.31c5.15-2.58,5.15-2.58,7-1.47,4.42,2.21,4,6.26-1.1,12.51-2.21,2.94-4.42,4-7.73,5.15-1.47.37-4,2.94-4,4V147h1.47c.37,0,.37-.37.74-.74a7.42,7.42,0,0,1,5.89-2.58c2.58,0,5.52-1.47,8.1-3.68,2.21-1.84,4-2.58,5.52-1.47a2.19,2.19,0,0,0,2.58,0c1.84-.74,2.94-.37,2.94,1.1a2.45,2.45,0,0,0,1.47,1.84c.74.37,2.21,1.84,3.31,2.58a6.35,6.35,0,0,0,1.47,1.1h0a6.22,6.22,0,0,0-.74-1.84,2.21,2.21,0,0,1-.37-1.47h4c3.31.37,3.68.74,5.52,2.94a11.74,11.74,0,0,0,2.58,2.21h1.47a.36.36,0,0,0,.37-.37h0c0-.37-2.21-2.21-4.42-4-5.15-4.42-6.26-6.26-6.26-12.14,0-3.68,0-4.78,1.1-5.52,1.47-1.47,2.21-1.47,5.52.37,2.58,1.47,3.31,1.47,8.83,1.1,6.26,0,6.26,0,9.2,1.84,1.84,1.1,3.68,2.21,4.78,2.94,1.84,1.47,3.68,1.47,4.42.37.37-1.47-2.94-4.42-9.94-8.1-6.62-3.68-7.36-4.42-4.42-6.26,1.84-1.1,1.84-.74,4.78.74,2.21,1.1,3.31,1.47,4.78,1.1l1.84-.37-4-3.31c-2.21-1.84-4.42-3.68-4.78-4.42a7.19,7.19,0,0,0-5.52-2.58,8,8,0,0,1-2.21-.37h0c-.74-1.1,1.1-1.84,6.62-1.84,7-.37,8.1-1.1,3.31-2.58a44.49,44.49,0,0,0-6.62-1.84c-1.84-.37-2.94-.74-3.31-1.47v-.37h0a1.14,1.14,0,0,1,.37-.74c.37-.37,1.84-.37,4.78,0s4.78.74,5.15.37-1.1-1.47-4-3.31a35.36,35.36,0,0,1-8.1-5.89,40.5,40.5,0,0,0-5.15-4c-1.84-.74-2.21-1.47-2.21-1.84.37-1.1,2.94-1.1,4.78,0a11.36,11.36,0,0,0,4,.74h2.94l-1.84-.74c-1.84-.74-7-4.42-7.36-5.15h0a7.31,7.31,0,0,1,2.94,0h2.94l-5.52-3.31c-2.94-2.21-4.78-3.31-7-3.68a24,24,0,0,0-4-.74c-1.84-.37-4.42-3.31-5.89-5.89ZM94.31,79.24h0c.74,0,1.1,0,1.1.37h0c0,.37-.74,1.1-1.47,1.47a1.35,1.35,0,0,1-1.1.37h0v-1.1C93.21,79.61,93.58,79.24,94.31,79.24Zm14,1.47h0c.74,0,1.47.37,1.47,1.1s-.37,1.1-1.47,1.1c-.74,0-1.1,0-1.47-.37v-.74C107.19,81.08,107.56,80.71,108.3,80.71Zm-4,.37a1,1,0,0,1,1.1,1.1c0,1.1-.37,1.47-2.21,1.84a8.29,8.29,0,0,1-2.58.37h0c-.74-.74,0-1.84,1.47-2.58A3.63,3.63,0,0,1,104.25,81.08Zm9.57,0c1.1,0,1.1.37.74,1.84,0,.37-.74.74-1.47.74-1.1,0-1.1-.37-1.1-1.1a1.35,1.35,0,0,1,1.47-1.47ZM98,83.66h0c1.47,0,.74,2.21-1.1,3.31-1.47,1.1-2.94,1.47-3.31,1.1h0C93.21,86.6,96.52,84,98,83.66Zm11.78,5.52c.74,0,1.1.74.74,1.84,0,.74-.74,1.1-1.47,1.1h-1.1c0-.37.37-.74,1.1-1.84C108.67,89.54,109.4,89.18,109.77,89.18Zm-4.78.37h0c1.1,0,1.47,1.1.37,1.84a1.82,1.82,0,0,1-1.1.37h0a3.81,3.81,0,0,0-1.47-.37l-1.47-.74,1.47-.74C103.51,89.91,104.62,89.54,105,89.54Zm9.94,1.1a3.32,3.32,0,0,1,1.84.37c1.1.37,1.47.74,1.1,2.21s-1.1,1.84-4,.74c-1.47-.37-1.47-.74-1.1-1.84A2.48,2.48,0,0,1,114.92,90.65ZM92.84,91h0c2.21,0,2.58.37,1.47,1.84l-1.47,1.47c-.74.74-1.1.37-1.47-.37-.74-1.1-.74-1.84-.37-2.21C91,91.38,91.74,91,92.84,91ZM87,92.12c1.1,0,1.47.37,2.21,1.84l1.1,1.84-1.47.74c-1.47.37-1.84.37-2.94-1.1-.74-1.1-1.1-1.84-.74-2.21h0A1.7,1.7,0,0,1,87,92.12Zm34.59,5.52c1.1,0,2.21.74,1.84,1.84-.37,1.47-1.84,1.84-3.31.74-.74-.74-.74-.74-.37-1.84C120.44,98,120.81,97.64,121.55,97.64Zm-19.87,2.58H102c0,.37.37.37,0,1.1-.37,1.47-1.1,1.84-1.84.74C100.57,101.32,100.94,100.22,101.67,100.22Zm-6.26,1.47a6.22,6.22,0,0,1,1.84.74c.37.37.74.74.74,1.1h0c-.37.37-1.1,0-1.84-.37a2,2,0,0,1-1.1-1.47h.37Zm10.3,0c.37,0,.37,0,.74.74a4.2,4.2,0,0,1,1.1,2.21c.37,1.47-.37,2.21-1.84,1.47a2.18,2.18,0,0,1-1.1-3.31C105.35,102.06,105.35,101.69,105.72,101.69Zm3.68,2.21c.37,0,.74.37,1.1,1.47v1.1h0c-.74,0-1.1-.74-1.1-1.84C109,104.26,109,103.9,109.4,103.9ZM86.59,106.1h1.84a1.91,1.91,0,0,1,1.47.74h0v.37c0,.37-.74,1.1-1.84,1.47s-2.58,1.1-3.68,1.47c-1.84.37-1.84.37-2.58-1.47a15.47,15.47,0,0,0-.74-1.84h0C81.07,106.47,84.38,106.1,86.59,106.1Zm35.33,5.15c2.21,0,3.31,1.47,1.1,2.94a3.86,3.86,0,0,1-4.78,0c-1.1-.74-.74-.74.74-1.84A4.18,4.18,0,0,1,121.91,111.26Zm7.36,1.84h0a6.22,6.22,0,0,1,1.84.74c1.1.74,1.1.74-.37,2.21-.74.74-1.1,1.47-1.47,1.47h0a7.49,7.49,0,0,0-1.84-.37c-1.1,0-1.84-.74-1.84-1.1h0C125.59,114.94,128.17,113.1,129.27,113.1ZM91.74,115.3h0c1.84,0,2.58,1.1,2.58,3.31,0,2.94-1.84,2.58-2.58-.37C91,115.67,91,115.3,91.74,115.3Zm10.67.74a8.79,8.79,0,0,1,3.31.74h0c0,.37-.74,1.1-1.1,1.84l-1.1,1.47-.74-2.21c-.37-.37-.74-1.47-.37-1.84Zm-5.15,1.1H98c.74,0,1.1.74,1.47,1.1v1.47h0c-.37,0-.74-.37-1.1-1.47-1.1-.37-1.47-1.1-1.1-1.1Z"/></svg>